<svg xmlns="http://www.w3.org/2000/svg" viewBox="0 0 500 500"><g id="freepik--Floor--inject-15"><path d="M458.11,448.72c0,.14-93.18.26-208.1.26s-208.12-.12-208.12-.26,93.16-.26,208.12-.26S458.11,448.57,458.11,448.72Z" style="fill:#263238"></path></g><g id="freepik--speech-bubble--inject-15"><path d="M174,96.78l-4.78-9.48a31.7,31.7,0,1,0-4.24,10.54v0Z" style="fill:#fff"></path><path d="M174,96.78l-.56.08-1.72.22-6.74.86a.1.1,0,0,1-.09-.07,0,0,0,0,1,0,0v0l.14.06a31.68,31.68,0,0,1-11.16,10.73,31.22,31.22,0,0,1-4.47,2.1c-.8.3-1.64.53-2.49.8a20.44,20.44,0,0,1-2.62.64,31.49,31.49,0,0,1-11.6.15A32,32,0,0,1,111,97.71a32.48,32.48,0,0,1-4.59-14,28.73,28.73,0,0,1-.12-3.83c0-.65.11-1.29.15-1.93s.1-1.3.23-1.93a29.74,29.74,0,0,1,.88-3.82c.19-.63.37-1.27.58-1.89l.75-1.84A31.86,31.86,0,0,1,130.82,50,31.86,31.86,0,0,1,156,54.66a31.42,31.42,0,0,1,8.16,8,34.6,34.6,0,0,1,2.68,4.52,40,40,0,0,1,1.77,4.57,31.58,31.58,0,0,1,.69,15.57v0l3.52,7.1.9,1.81.28.6-.32-.62-.94-1.81-3.59-7a.11.11,0,0,1,0,0,31.49,31.49,0,0,0-.76-15.46,41.55,41.55,0,0,0-1.78-4.53,33.58,33.58,0,0,0-2.67-4.47,31.33,31.33,0,0,0-8.1-7.91,31.63,31.63,0,0,0-24.89-4.53,31.55,31.55,0,0,0-21.66,18.22c-.25.61-.5,1.21-.74,1.82s-.38,1.24-.58,1.86a30.83,30.83,0,0,0-.86,3.78c-.13.63-.15,1.27-.23,1.91s-.17,1.26-.15,1.9a31.87,31.87,0,0,0,.11,3.79,32.27,32.27,0,0,0,4.53,13.85A31.77,31.77,0,0,0,132.71,112a31.35,31.35,0,0,0,11.49-.12,18.74,18.74,0,0,0,2.61-.63c.83-.26,1.67-.48,2.47-.78a31.27,31.27,0,0,0,4.44-2.07A31.77,31.77,0,0,0,164.87,97.8a.07.07,0,0,1,.11,0s0,0,0,.09h0l-.09-.1,6.7-.75,1.74-.19Z" style="fill:#263238"></path><path d="M132.33,76.68l2.21,0,4.69-6.8-.09-4.41s3.41-.27,3.12,5.5.11,4.3.11,4.3,7.24-.11,7.85.51c.45.45.78,7.64.93,11.54a4.22,4.22,0,0,1-2.91,4.31,3.51,3.51,0,0,1-.78.12c-1.8,0-11.06-1.27-11.06-1.27l-3.81.08Z" style="fill:#DC1FFF"></path><polygon points="125.99 75.59 127.63 90.65 131.41 90.58 131.13 75.8 125.99 75.59" style="fill:#DC1FFF"></polygon></g><g id="freepik--Robot--inject-15"><path d="M351.68,140.78a3.92,3.92,0,0,0-2.14-1.55l-22.08-9.12.52,20.74c2.78,1.18,5,3.38,7.56,5s6,2.52,8.56,1c1.81-1.08,2.79-3.1,3.67-5,1.19-2.57,2.36-5.16,3.51-7.75C351.74,143,352.19,141.79,351.68,140.78Z" style="fill:#e0e0e0"></path><path d="M351.68,140.78a1.49,1.49,0,0,1,.25.68,4,4,0,0,1-.34,2.06c-.69,1.67-1.76,4-3.07,7a24,24,0,0,1-2.5,4.75,6.38,6.38,0,0,1-2.36,1.95,6.49,6.49,0,0,1-3.22.52,12.89,12.89,0,0,1-6.39-2.65,35,35,0,0,0-6.17-4l-.16-.07v-.17c0-1.76-.09-3.62-.14-5.51-.13-5.38-.25-10.53-.36-15.22v-.38l.34.15,17.66,7.39c2.16.93,3.88,1.63,5,2.18a3.61,3.61,0,0,1,1.18.88,1.31,1.31,0,0,1,.25.44s-.09-.14-.31-.38a3.66,3.66,0,0,0-1.19-.8l-5.09-2-17.72-7.22.33-.23c.13,4.69.26,9.83.4,15.22,0,1.89.09,3.75.14,5.51l-.16-.23c2.42,1,4.32,2.74,6.26,4.1a12.54,12.54,0,0,0,6.14,2.61,6.17,6.17,0,0,0,3-.46,6.06,6.06,0,0,0,2.22-1.81,24.06,24.06,0,0,0,2.5-4.65l3.22-7a4.23,4.23,0,0,0,.42-2A6,6,0,0,0,351.68,140.78Z" style="fill:#263238"></path><path d="M278.23,201.28c.39,1.22,1.94,10.57,6.42,15.34s13.24,2.24,14.6,0,1.95-27.55,1.95-27.55l-3.12-14.6-3.22-20.83-7.48-5.84h-9.15s-1,23.43-1.17,24.56S278.23,201.28,278.23,201.28Z" style="fill:#263238"></path><path d="M280.55,147.08s3.59-1.3,10,0,14.37,12.2,15.73,18.24,4.09,13.24,2.34,28a11,11,0,0,0-2.14,2.84c-1.17,2-10.32,2-10.32,2a26,26,0,0,0-.39-9.35,8.09,8.09,0,0,0-4.83-5.66s1.82-13.07,2.1-19.23c.28-5.94.39-10.93-3.7-13.07s-6.93-1.43-6.93-1.43Z" style="fill:#e0e0e0"></path><path d="M296.14,198.34H296l0-.14a26,26,0,0,0-.38-9.3,8.06,8.06,0,0,0-4.75-5.58l-.1,0v-.1c0-.13,1.83-13.13,2.11-19.21.25-5.55.5-10.79-3.63-13s-6.82-1.42-6.85-1.42l-.08,0-2-2.6.16-.06s3.69-1.29,10,0c6.53,1.32,14.48,12.36,15.83,18.33.2.86.42,1.75.66,2.69,1.42,5.65,3.18,12.69,1.68,25.39v0l0,0a10.8,10.8,0,0,0-2.12,2.8C305.37,198.32,296.51,198.34,296.14,198.34Zm-5.09-15.22a8.35,8.35,0,0,1,4.82,5.72,26.12,26.12,0,0,1,.41,9.25c1.17,0,9-.16,10.07-2a11.43,11.43,0,0,1,2.13-2.83c1.49-12.62-.27-19.62-1.69-25.25-.23-.94-.45-1.83-.65-2.7-1.34-5.9-9.2-16.83-15.64-18.14-5.52-1.12-9-.28-9.74,0l1.68,2.19c.5-.1,3.19-.51,6.94,1.46,4.27,2.24,4,7.56,3.77,13.19C292.88,169.8,291.22,181.9,291.05,183.12Z" style="fill:#263238"></path><g style="opacity:0.30000000000000004"><path d="M289.19,156.94a14.58,14.58,0,0,0-7.34-8.24l-1.74,59.24,1.15,3.25c5.17-5.92,6.73-14.78,7.8-22.58a147.33,147.33,0,0,0,1.84-20.53A31.37,31.37,0,0,0,289.19,156.94Z"></path></g><path d="M297.36,211.59c.12-.06,4.09-11.32,4.09-11.32l12.83,7.52-10.12,7.41Z" style="fill:#263238"></path><g style="opacity:0.30000000000000004"><path d="M298.88,208.93c-.62-6.16-1.9-12.48-1.2-18.64a43.9,43.9,0,0,1,8.67-21.58l4.29.24Z"></path></g><path d="M310.64,217.51l9.49-9.78c4.7-7.37,8.82-17.75,11.54-24.45,6.21-15.3,11.55-32,10.07-31.69,0,0-24.81,1.24-25.66,1s-7.82,16.27-11.34,25.84c-3.3,9-5.23,23.34-5.23,23.34Z" style="fill:#e0e0e0"></path><path d="M310.64,217.51a1.28,1.28,0,0,1-.19-.24l-.57-.77-2.2-3c-1.94-2.71-4.76-6.62-8.3-11.55l0,0v-.07c.53-3.82,1.25-8.16,2.28-12.91.52-2.37,1.12-4.84,1.88-7.37s1.75-5.1,2.77-7.74c2.07-5.28,4.34-10.86,7-16.59a41.31,41.31,0,0,1,2.2-4.28l.19-.26a1.59,1.59,0,0,1,.13-.13.41.41,0,0,1,.3-.14l.61,0,1.2,0,2.44-.08,10-.43,11.45-.54h0a.43.43,0,0,1,.37.09.47.47,0,0,1,.14.24,1.3,1.3,0,0,1,.05.37,4.29,4.29,0,0,1,0,.63c0,.41-.13.8-.21,1.19-.16.79-.35,1.55-.55,2.31-.41,1.52-.85,3-1.31,4.48-.92,2.93-1.89,5.78-2.86,8.54-2,5.52-4,10.7-5.93,15.47-3.86,9.57-7.51,17.61-11.1,23.15h0l-7.1,7.2-1.86,1.87-.47.47c-.11.1-.16.15-.16.14l.16-.18.47-.51,1.84-1.93,6.92-7.25,0,0c3.52-5.55,7.11-13.58,10.93-23.16,1.94-4.78,3.93-10,5.87-15.47,1-2.76,1.94-5.61,2.85-8.53.45-1.46.89-2.95,1.3-4.46.19-.75.38-1.51.54-2.28a11.48,11.48,0,0,0,.19-1.15,5.46,5.46,0,0,0,0-.56,1.17,1.17,0,0,0,0-.22,0,0,0,0,0,0,0l.07-.05c.05-.07,0,0,0,.06v0h-.05l-11.45.55-10,.42-2.44.08-1.22,0h-.62c0-.09-.06.18,0-.19a0,0,0,0,0,0,0s.06.16.07.15l0,0L316,153l-.17.22a40.56,40.56,0,0,0-2.16,4.2c-2.62,5.71-4.91,11.29-7,16.55-1,2.63-2,5.18-2.79,7.69s-1.37,5-1.9,7.34c-1,4.72-1.8,9.06-2.36,12.86l0-.11,8.09,11.57c.94,1.34,1.66,2.38,2.16,3.11l.56.81Z" style="fill:#263238"></path><path d="M289.26,148.07s.14,0,.41,0a5.28,5.28,0,0,1,1.17.21,7,7,0,0,1,3.5,2.53,11.05,11.05,0,0,1,2.06,6.08,57.29,57.29,0,0,1-.27,7.84,133.84,133.84,0,0,1-1.88,14.09c-.34,1.79-.66,3.23-.89,4.22a9.1,9.1,0,0,1-.43,1.52,8.84,8.84,0,0,1,.23-1.56c.18-1.09.43-2.52.72-4.24.59-3.58,1.29-8.55,1.73-14.07a60.29,60.29,0,0,0,.31-7.77,10.88,10.88,0,0,0-1.87-5.88,7.16,7.16,0,0,0-3.27-2.57A13.36,13.36,0,0,0,289.26,148.07Z" style="fill:#263238"></path><circle cx="297.01" cy="216.39" r="7.74" style="fill:#263238"></circle><path d="M300.71,202.48a9,9,0,0,1-.37,1.82c-.28,1.14-.71,2.77-1.23,4.7l-.06.21-.23-.06a7.73,7.73,0,0,0-5.4.65,7.18,7.18,0,0,0-3.23,3.27,7.85,7.85,0,0,0-.77,3.74,10.65,10.65,0,0,0,.87,3.46,2.31,2.31,0,0,1-.54-.83,7.24,7.24,0,0,1-.69-2.61,7.83,7.83,0,0,1,.69-4,7.51,7.51,0,0,1,3.43-3.54,8,8,0,0,1,5.76-.62l-.28.16c.57-1.92,1.06-3.52,1.42-4.64A11,11,0,0,1,300.71,202.48Z" style="fill:#455a64"></path><path d="M314,214.24c.14,0,.26,0,.26,0a.75.75,0,0,1-.26,0,.7.7,0,0,1-.26,0S313.83,214.24,314,214.24Z" style="fill:#455a64"></path><path d="M365.58,38.14l-6.74-2.59-19.13,20.5L323.07,99.22l8,8.44-8.16,21.18-6.53,4.36-9,23.44,2.72,5.5s-2.6,6.24-2.62,6.79l.84.33,5.16.68,11.3,4.33,4.23-3.94,22.33-20.76,3.24-8.41-2.61-5.27-11.12-8-4-2.12,2.42-6.28,4.62-1.94,3,1.16,23.31-60.47,6.17-16L374,41.37,372,46.71,365,44.06ZM346.72,141.65,345.05,146l-7.92,7.66-8.09-3.1,6.55-17,2.83-.22Z" style="fill:#263238"></path><polygon points="306.52 169.8 309.67 171 313.92 170.72 324.95 174.95 329.56 170.76 309.17 162.94 306.52 169.8" style="fill:#DC1FFF"></polygon><path d="M322.73,129.21a6.22,6.22,0,0,1,.68,1.13l1.73,3.22,0,.07,0,.07c-1.2,3.27-3,8.07-5.07,13.4s-3.93,10.11-5.23,13.33l0,.08-.07,0-3.44,1.23a6.71,6.71,0,0,1-1.26.38,7.32,7.32,0,0,1,1.19-.56l3.38-1.37-.1.1c1.21-3.27,3-8.07,5.08-13.4s3.93-10.11,5.23-13.33v.14l-1.59-3.29A7.08,7.08,0,0,1,322.73,129.21Z" style="fill:#455a64"></path><g style="opacity:0.30000000000000004"><polygon points="313.69 154.99 313 155.57 310.64 152.98 311.33 152.39 313.69 154.99"></polygon></g><g style="opacity:0.30000000000000004"><polygon points="319.07 145.83 313.76 153.58 311.41 150.98 312.1 150.4 319.07 145.83"></polygon></g><g style="opacity:0.30000000000000004"><polygon points="315.22 151 314.53 151.59 312.17 148.99 312.87 148.4 315.22 151"></polygon></g><g style="opacity:0.30000000000000004"><polygon points="315.99 149.01 315.3 149.59 312.94 147 313.63 146.41 315.99 149.01"></polygon></g><g style="opacity:0.30000000000000004"><polygon points="316.76 147.01 316.07 147.6 313.71 145 314.4 144.42 316.76 147.01"></polygon></g><g style="opacity:0.30000000000000004"><polygon points="317.53 145.02 316.84 145.61 314.48 143.01 315.17 142.43 317.53 145.02"></polygon></g><g style="opacity:0.30000000000000004"><polygon points="318.3 143.03 317.61 143.61 315.25 141.02 315.94 140.43 318.3 143.03"></polygon></g><g style="opacity:0.30000000000000004"><polygon points="319.07 141.04 318.37 141.62 316.02 139.02 316.71 138.44 319.07 141.04"></polygon></g><g style="opacity:0.30000000000000004"><polygon points="319.83 139.04 319.14 139.63 316.78 137.03 317.48 136.45 319.83 139.04"></polygon></g><g style="opacity:0.30000000000000004"><polygon points="333.19 94.34 332.5 94.93 330.14 92.33 330.84 91.75 333.19 94.34"></polygon></g><g style="opacity:0.30000000000000004"><polygon points="333.96 92.35 333.27 92.94 330.91 90.34 331.6 89.75 333.96 92.35"></polygon></g><g style="opacity:0.30000000000000004"><polygon points="334.73 90.36 334.04 90.94 331.68 88.35 332.37 87.76 334.73 90.36"></polygon></g><g style="opacity:0.30000000000000004"><polygon points="335.5 88.36 334.81 88.95 332.45 86.35 333.14 85.77 335.5 88.36"></polygon></g><g style="opacity:0.30000000000000004"><polygon points="336.27 86.37 335.58 86.96 333.22 84.36 333.91 83.78 336.27 86.37"></polygon></g><g style="opacity:0.30000000000000004"><polygon points="337.04 84.38 336.34 84.96 333.99 82.37 334.68 81.78 337.04 84.38"></polygon></g><g style="opacity:0.30000000000000004"><polygon points="337.8 82.39 337.11 82.97 334.75 80.37 335.45 79.79 337.8 82.39"></polygon></g><g style="opacity:0.30000000000000004"><polygon points="338.57 80.39 337.88 80.98 335.52 78.38 336.21 77.8 338.57 80.39"></polygon></g><g style="opacity:0.30000000000000004"><polygon points="339.34 78.4 338.65 78.98 336.29 76.39 336.98 75.8 339.34 78.4"></polygon></g><g style="opacity:0.30000000000000004"><polygon points="340.03 76.61 339.34 77.19 336.98 74.6 337.67 74.01 340.03 76.61"></polygon></g><g style="opacity:0.30000000000000004"><polygon points="340.8 74.61 340.11 75.2 337.75 72.6 338.44 72.02 340.8 74.61"></polygon></g><g style="opacity:0.30000000000000004"><polygon points="341.57 72.62 340.88 73.21 338.52 70.61 339.21 70.02 341.57 72.62"></polygon></g><g style="opacity:0.30000000000000004"><polygon points="342.34 70.63 341.64 71.21 339.29 68.62 339.98 68.03 342.34 70.63"></polygon></g><g style="opacity:0.30000000000000004"><polygon points="343.11 68.64 342.41 69.22 340.06 66.62 340.75 66.04 343.11 68.64"></polygon></g><g style="opacity:0.30000000000000004"><polygon points="343.87 66.64 343.18 67.23 340.82 64.63 341.51 64.05 343.87 66.64"></polygon></g><g style="opacity:0.30000000000000004"><polygon points="344.64 64.65 343.95 65.23 341.59 62.64 342.28 62.05 344.64 64.65"></polygon></g><g style="opacity:0.30000000000000004"><polygon points="345.41 62.66 344.72 63.24 342.36 60.64 343.05 60.06 345.41 62.66"></polygon></g><g style="opacity:0.30000000000000004"><polygon points="346.18 60.66 345.49 61.25 343.13 58.65 343.82 58.07 346.18 60.66"></polygon></g><polygon points="336.82 125.81 335.43 122.44 340.26 109.93 339.5 108.32 346.54 90.07 352.96 83.94 362.14 60.13 367.04 57.16 371.09 58.71 372.97 66.42 372.05 68.8 372.97 69.15 371.34 73.38 370.42 73.03 369.1 76.47 370.02 76.82 368.32 81.23 367.49 80.91 366.33 83.91 367.71 84.44 366.15 88.49 364.77 87.96 363.04 92.46 357.68 96.78 348.76 119.55 343.86 117.59 339.24 119.53 336.82 125.81" style="fill:#DC1FFF"></polygon><path d="M353.94,91.56c.13,0-2,5.9-4.75,13s-5.11,12.91-5.24,12.86,2-5.89,4.75-13S353.8,91.51,353.94,91.56Z" style="fill:#263238"></path><path d="M360.66,86.56a6.3,6.3,0,0,1,2.49.67,6.44,6.44,0,0,1,2.31,1.17,13,13,0,0,1-4.8-1.84Z" style="fill:#263238"></path><path d="M362.75,82.47a6.88,6.88,0,0,1,2.59.71,7.18,7.18,0,0,1,2.4,1.2,6.88,6.88,0,0,1-2.59-.71A7.31,7.31,0,0,1,362.75,82.47Z" style="fill:#263238"></path><path d="M363.32,79.1a15.75,15.75,0,0,1,5.35,2.05,16,16,0,0,1-5.35-2.05Z" style="fill:#263238"></path><path d="M365.17,75.11a13.56,13.56,0,0,1,4.9,1.88,6.59,6.59,0,0,1-2.54-.69A6.66,6.66,0,0,1,365.17,75.11Z" style="fill:#263238"></path><path d="M365.93,71.51a8.89,8.89,0,0,1,2.86.82,8.63,8.63,0,0,1,2.68,1.31,8.89,8.89,0,0,1-2.86-.82A8.63,8.63,0,0,1,365.93,71.51Z" style="fill:#263238"></path><path d="M368.24,67.41a7.31,7.31,0,0,1,2.59.71,7.18,7.18,0,0,1,2.4,1.2,6.81,6.81,0,0,1-2.58-.71A7.08,7.08,0,0,1,368.24,67.41Z" style="fill:#263238"></path><polygon points="361.12 79.68 359.9 77.72 367.24 58.67 368.97 59.33 361.12 79.68" style="fill:#fff"></polygon><g style="opacity:0.30000000000000004"><polygon points="331.04 107.66 335.7 104.04 351.56 62.9 358.85 55.56 365.57 38.13 363.54 37.35 356.72 55.02 349.61 62.15 336.07 97.29 327.76 104.18 331.04 107.66"></polygon></g><path d="M350.57,86.37a13.05,13.05,0,0,1-3.48-1.06,12.38,12.38,0,0,1-3.29-1.54,13.05,13.05,0,0,1,3.48,1.06A12.38,12.38,0,0,1,350.57,86.37Z" style="fill:#455a64"></path><path d="M359.05,66.9a16.88,16.88,0,0,1-4-1.25,16.36,16.36,0,0,1-3.8-1.74,33.25,33.25,0,0,1,7.79,3Z" style="fill:#455a64"></path><path d="M339.68,111.34a20.51,20.51,0,0,1-4.36-1.4,20.08,20.08,0,0,1-4.18-1.88,39.51,39.51,0,0,1,8.54,3.28Z" style="fill:#455a64"></path><path d="M335.05,121.64a19,19,0,0,1-4.16-1.32,18.25,18.25,0,0,1-4-1.8,36.85,36.85,0,0,1,8.13,3.12Z" style="fill:#455a64"></path><path d="M335.51,123.42c.13.06-3.48,9.76-8.07,21.67s-8.43,21.54-8.57,21.49,3.48-9.75,8.08-21.67S335.38,123.37,335.51,123.42Z" style="fill:#455a64"></path><g style="opacity:0.30000000000000004"><polygon points="351.56 62.9 328.53 122.63 331.11 121.48 354.94 59.65 351.56 62.9" style="fill:#fff"></polygon></g><path d="M345.05,146a1.76,1.76,0,0,1-.26.33l-.81.89-3.08,3.24c-2.69,2.79-6.38,6.59-10.57,10.92l-.13.14-.17-.09-4.26-2.16-.21-.11.08-.22.12-.3c2.62-6.81,5-13,6.79-17.4l2.11-5.25.6-1.41a2.05,2.05,0,0,1,.24-.49,1.78,1.78,0,0,1-.14.52l-.51,1.46c-.49,1.32-1.15,3.12-2,5.3-1.67,4.48-4,10.65-6.64,17.45l-.12.31-.13-.33,4.26,2.18-.3.05,10.71-10.8,3.18-3.14.88-.83A1.57,1.57,0,0,1,345.05,146Z" style="fill:#455a64"></path><polygon points="346.19 141.31 351.56 134.77 342.07 127.99 337.96 133.83 346.19 141.31" style="fill:#DC1FFF"></polygon><path d="M342.44,127.08c1-.75.93-.78,2.14-.52,1.37.28,2.13,1.79,2.27,3.18a7,7,0,0,1-1.53,5c-.77,1-2,1.72-3.17,1.28a2.5,2.5,0,0,1-1.42-2.19,7.17,7.17,0,0,1,.46-2.7l1.25-4.1" style="fill:#e0e0e0"></path><path d="M342.44,127.08a4.06,4.06,0,0,1-.2,1c-.15.62-.4,1.52-.71,2.62s-.85,2.44-.44,3.81a2,2,0,0,0,1.44,1.41,2.61,2.61,0,0,0,2.1-.78c2.43-2.34,2.53-6.24,1-7.79a2.26,2.26,0,0,0-1.25-.68,1.79,1.79,0,0,0-1.08-.06c-.53.29-.83.53-.85.48a2.35,2.35,0,0,1,.77-.66,1.83,1.83,0,0,1,1.21,0,2.53,2.53,0,0,1,1.46.71,4.86,4.86,0,0,1,1.21,3.9,7,7,0,0,1-2.11,4.54,3.1,3.1,0,0,1-2.55.89,2.41,2.41,0,0,1-1.79-1.76,4.29,4.29,0,0,1,0-2.25c.15-.68.37-1.27.54-1.82.36-1.09.65-2,.87-2.57A3.57,3.57,0,0,1,342.44,127.08Z" style="fill:#263238"></path><polygon points="345.68 118.02 347.36 130.8 348.94 130.34 348.94 118.7 345.68 118.02" style="fill:#DC1FFF"></polygon><path d="M338.14,122.4c.45-.53.93-.78,2.15-.53s2.13,1.8,2.26,3.19a7,7,0,0,1-1.53,5.05c-.77.94-2,1.71-3.16,1.27a2.5,2.5,0,0,1-1.43-2.19,7.42,7.42,0,0,1,.47-2.7l1.24-4.09" style="fill:#e0e0e0"></path><path d="M338.14,122.4a3.22,3.22,0,0,1-.19,1c-.16.63-.4,1.52-.71,2.63s-.86,2.44-.44,3.8a2,2,0,0,0,1.43,1.41,2.6,2.6,0,0,0,2.1-.77c2.44-2.34,2.53-6.24,1-7.8a2.27,2.27,0,0,0-1.25-.67,2.68,2.68,0,0,0-1.11,0c-.58.16-.79.52-.83.47s0-.09.14-.23a1.41,1.41,0,0,1,.64-.43,2.81,2.81,0,0,1,1.21,0,2.51,2.51,0,0,1,1.46.7,4.92,4.92,0,0,1,1.21,3.9,7,7,0,0,1-2.12,4.55,3.09,3.09,0,0,1-2.55.88,2.44,2.44,0,0,1-1.79-1.76,4.29,4.29,0,0,1,0-2.25c.16-.67.37-1.27.55-1.81.35-1.09.65-2,.87-2.58A3.86,3.86,0,0,1,338.14,122.4Z" style="fill:#263238"></path><path d="M347.4,128.93c1-.76.93-.78,2.14-.53,1.37.28,2.13,1.79,2.27,3.19a7,7,0,0,1-1.53,5c-.77.94-2,1.71-3.17,1.27a2.49,2.49,0,0,1-1.42-2.19,7.38,7.38,0,0,1,.46-2.7c.42-1.37.83-2.73,1.25-4.09" style="fill:#e0e0e0"></path><path d="M347.4,128.93a4.26,4.26,0,0,1-.19,1c-.16.62-.41,1.52-.72,2.62s-.85,2.45-.44,3.81a2,2,0,0,0,1.44,1.41,2.61,2.61,0,0,0,2.1-.78c2.43-2.34,2.53-6.23,1-7.79a2.26,2.26,0,0,0-1.25-.68,1.79,1.79,0,0,0-1.08-.06,8.08,8.08,0,0,1-.85.49,2.3,2.3,0,0,1,.77-.67,1.77,1.77,0,0,1,1.21,0,2.46,2.46,0,0,1,1.46.7,4.86,4.86,0,0,1,1.21,3.9,7,7,0,0,1-2.11,4.54,3.07,3.07,0,0,1-2.55.89,2.41,2.41,0,0,1-1.79-1.76,4.29,4.29,0,0,1,0-2.25c.15-.68.37-1.27.54-1.81.36-1.09.65-2,.87-2.58A3.38,3.38,0,0,1,347.4,128.93Z" style="fill:#263238"></path><path d="M331.67,183.28a3.87,3.87,0,0,1-.92.2l-2.59.42-9.06,1.32.18-.13-3.76,7.06c-2.7,5-5.17,9.59-7,12.87l-2.17,3.87a11,11,0,0,1-.85,1.39,8.19,8.19,0,0,1,.68-1.48c.51-1,1.2-2.35,2-4,1.73-3.32,4.15-7.9,6.85-12.94l3.79-7,.06-.11.12,0,9.09-1.13,2.61-.28A3.93,3.93,0,0,1,331.67,183.28Z" style="fill:#263238"></path><polygon points="257.28 137.66 257.28 131.12 235.97 128.66 235.97 135.27 229.13 137.77 240.88 150.05 262.42 147.76 266 146.56 266 145.9 266.6 145.84 257.28 137.66" style="fill:#263238"></polygon><g style="opacity:0.30000000000000004"><path d="M235.91,133.5A18.38,18.38,0,0,0,246.66,138a17.49,17.49,0,0,0,10.56-3Z"></path></g><ellipse cx="249.03" cy="100.93" rx="34.26" ry="48.6" transform="translate(130.93 342.29) rotate(-85.99)" style="fill:#e0e0e0"></ellipse><path d="M200.55,97.53s0-.23,0-.67a16.69,16.69,0,0,1,.25-2,25.25,25.25,0,0,1,2.43-7.24,30.54,30.54,0,0,1,3-4.65,35.38,35.38,0,0,1,4.57-4.75,45.54,45.54,0,0,1,13.82-8,62,62,0,0,1,19-3.79,69.07,69.07,0,0,1,22.1,2.63,54.14,54.14,0,0,1,21.51,11.76,35,35,0,0,1,7.86,10.4,25.27,25.27,0,0,1-1.8,25.76,35.14,35.14,0,0,1-9.24,9.2,54.26,54.26,0,0,1-22.94,8.65,69.19,69.19,0,0,1-22.25-.49,61.88,61.88,0,0,1-18.31-6.4A45.94,45.94,0,0,1,208,118.07a36.38,36.38,0,0,1-3.86-5.34,31,31,0,0,1-2.31-5,25.25,25.25,0,0,1-1.39-7.5,14.89,14.89,0,0,1,0-2c0-.45.05-.68.05-.68s0,.23,0,.68a19.38,19.38,0,0,0,0,2,26.22,26.22,0,0,0,1.48,7.45,30.82,30.82,0,0,0,2.34,5,35.89,35.89,0,0,0,3.86,5.26,45.62,45.62,0,0,0,12.53,9.75,62,62,0,0,0,18.21,6.3,68.9,68.9,0,0,0,22.1.43,53.84,53.84,0,0,0,22.72-8.59,34.43,34.43,0,0,0,9.1-9.07,24.76,24.76,0,0,0,1.76-25.25,34.57,34.57,0,0,0-7.74-10.25,53.89,53.89,0,0,0-21.3-11.67,69,69,0,0,0-21.94-2.66,61.91,61.91,0,0,0-18.91,3.7A45.69,45.69,0,0,0,211,78.46a35.05,35.05,0,0,0-4.57,4.68,31.43,31.43,0,0,0-3,4.6,26,26,0,0,0-2.51,7.16c-.18.85-.24,1.52-.3,2S200.55,97.53,200.55,97.53Z" style="fill:#263238"></path><path d="M232.54,68.09c-1.66-6.47-5-14.84-7.36-18.29s-7.8-3.8-7.8-3.8-2,4.13-1.34,7.14,13.83,33.09,13.83,33.09l6.78-1Z" style="fill:#e0e0e0"></path><path d="M277.74,68.87c-1.66-6.47-5-14.83-7.36-18.29s-7.81-3.79-7.81-3.79-2,4.13-1.34,7.14S275.07,87,275.07,87l6.41-.31Z" style="fill:#e0e0e0"></path><path d="M228.62,84.32a1.5,1.5,0,0,1-.15-.26l-.38-.78c-.32-.67-.77-1.65-1.3-2.88-1.08-2.44-2.47-5.86-4-9.65S220,63.53,219,61.07c-.51-1.2-.92-2.19-1.23-2.91l-.33-.79a1.23,1.23,0,0,1-.1-.29,1.41,1.41,0,0,1,.15.27c.1.2.22.46.38.77.32.67.77,1.66,1.3,2.88,1.08,2.44,2.47,5.86,4,9.65s2.85,7.22,3.88,9.68c.51,1.2.92,2.19,1.23,2.91.13.32.24.59.33.79A1.43,1.43,0,0,1,228.62,84.32Z" style="fill:#263238"></path><path d="M236.65,83.81a1.31,1.31,0,0,1-.09-.31l-.21-.91c-.18-.8-.44-1.94-.77-3.36-.67-2.83-1.67-6.71-3-11s-2.66-8-3.69-10.74c-.51-1.36-.94-2.45-1.24-3.21l-.33-.87a3.22,3.22,0,0,1-.11-.31s.06.09.15.29l.39.85c.33.75.78,1.83,1.32,3.18,1.07,2.71,2.45,6.48,3.76,10.73s2.27,8.15,2.89,11c.31,1.42.55,2.57.69,3.38.07.37.12.68.16.92A1.11,1.11,0,0,1,236.65,83.81Z" style="fill:#263238"></path><path d="M274.44,87.87s0-.08-.1-.24l-.26-.68-.92-2.54c-.78-2.14-1.89-5.08-3.2-8.3s-2.58-6.1-3.51-8.17l-1.12-2.46c-.11-.27-.21-.49-.29-.67a.86.86,0,0,1-.09-.24s.06.07.14.22l.34.65c.29.56.7,1.39,1.18,2.42,1,2.06,2.28,4.93,3.59,8.15s2.4,6.18,3.13,8.34c.37,1.08.66,2,.85,2.56.08.29.15.52.21.71A.94.94,0,0,1,274.44,87.87Z" style="fill:#263238"></path><path d="M276.06,63.3a1.17,1.17,0,0,1,.1.23l.23.66c.2.58.46,1.42.76,2.46.61,2.09,1.36,5,2.1,8.24s1.31,6.19,1.69,8.33c.2,1.07.34,1.94.43,2.54,0,.28.07.51.1.7a.62.62,0,0,1,0,.24,1.64,1.64,0,0,1-.06-.23l-.15-.69-.51-2.52c-.43-2.13-1-5.07-1.77-8.31s-1.45-6.15-2-8.25c-.27-1-.51-1.89-.68-2.48l-.18-.68A.79.79,0,0,1,276.06,63.3Z" style="fill:#263238"></path><g style="opacity:0.30000000000000004"><path d="M216.85,74.12l10.8,8L223,71.08S218.31,72.86,216.85,74.12Z"></path></g><g style="opacity:0.30000000000000004"><path d="M259.18,67.74,272,80.9l-4.84-11.17S261.46,67.61,259.18,67.74Z"></path></g><path d="M260.69,111.77l0,.24" style="fill:none;stroke:#ff8270;stroke-linecap:round;stroke-linejoin:round;stroke-width:0px"></path><path d="M252,87.07c-.19.07.23.42.05.55.06.16.14.71.38.47-.12.12-.08.62-.26.36a1,1,0,0,0,.1.43l0-.22c.15.54,0,.88.32,1.2l.07-.22c.08.32.16.6-.09.77l-.15-.32a5.52,5.52,0,0,0,.37,1.32v-.17a14.26,14.26,0,0,1,.68,2.08,12.7,12.7,0,0,0,.66,2.07l.19-.27.22.46c0-.06-.72-.17-.65-.23,0,.26.07.78.13,1.43A18.72,18.72,0,0,1,254.2,99a25.42,25.42,0,0,1-.07,3.6c-.14.37-.34.05-.38.05.05.46.22.2.17.59,0,.11-.17,0-.19-.09,0,.17-.08.33,0,.34.1-.2.36-.1.54-.18l-.06.5-.17,0c0,.11.44.32.31.81s-.1.85-.13,1.29c0,.22,0,.44-.05.66s-.07.42-.11.63c-.1,0-.13-.21-.17-.39,0,.11,0,.29-.11.38.21-.18.07.36.17.22.31.66-.18,1.41,0,2,.18,0,1.7.6,3.23,1.17s3.07,1.18,3.29,1.22a1.71,1.71,0,0,1-.12.42c.11,0,.21-.39.19-.6l-.23-.07c0-.47.15-.09.2-.53.2,0,.18.42.14.79.07-.32.26-.62.07-.79.13-.29.23.07.37-.28,0-.27-.16-.64,0-.93h0c.3-.7-.13-1.15.17-1.79l.05.08c.14-.23.08-.71.22-1.12-.05.12-.19.21-.2,0,.16-.48.06-.83.24-1.18l-.16-.36a58.8,58.8,0,0,0-.24-10.19l0,.07c0-.33-.07-.69-.11-1.09a12.48,12.48,0,0,0-.15-1.29c-.14-.9-.29-1.89-.44-2.87s-.4-2-.6-2.86-.41-1.71-.64-2.35a4.89,4.89,0,0,0-.17-1.42c0,.25-.16.21-.2,0-.32-1.28-.15,0-.57-1.31-.24-.73-.84-2.47-1.34-4.23l-.82-2.44c-.24-.73-.43-1.33-.53-1.65-.55-.56-.73-1.48-1.18-2.06l.09,0c-.31-.58-1.67-3.63-2.41-4.91l-.79-.07a68.91,68.91,0,0,0-8.49-.07c.55.92,1.1,1.87,1.7,2.79,0,.08-.06,0-.11,0,.36.5.61,1,.95,1.44a.59.59,0,0,1-.09.33,4.48,4.48,0,0,1,.82,1.29l.51,1c.13.28.22.47.22.48l.29-.1c.28.55-.22.31.08.79.47,0,.33.88.62,1,0,0,.07.27-.06.31.25,0,.16.24.29.38s.05-.07.09-.15l.24.34c0,.17-.12.26-.21.11.05.13.11.31.2.53s.16.51.26.81c.2.6.44,1.32.69,2.05.44,1.46.87,2.93,1.1,3.45.13-.19-.09-.49.13-.69.24.24.09.43.28.51-.35.22.08.66-.27,1l.25,0-.1.19c.57,1.2.19.25.43,1.39.2.64.62.87.57,1.27C251.81,87.09,251.92,86.91,252,87.07Z" style="fill:#DC1FFF"></path><path d="M283.37,103.52s4.76,10,0,17.25c-2.61,4-35.34,12.06-61.28-2.94,0,0-2.94-16.41,2.11-17.67s20.7-1,22.12,0a68.63,68.63,0,0,1,5.64,5.47l12.76.14s1.4-3.65,2.94-3.79S282.52,102.82,283.37,103.52Z" style="fill:#455a64"></path><path d="M283.66,110.31s-14-9.69-16.52,7.9Z" style="fill:#263238"></path><path d="M263.59,113.91c.12.11-.26.78-1.12,1.64a13.51,13.51,0,0,1-4,2.64,13.69,13.69,0,0,1-4.61,1.14c-1.22.07-2-.1-2-.27,0-.39,2.87-.65,6-2.08S263.31,113.64,263.59,113.91Z" style="fill:#263238"></path><g style="opacity:0.30000000000000004"><path d="M239.59,86.57c-.28.26-10.72,19.52-10.72,19.52l9.94,1.53-11.3,18.2L245.8,107l-10.39-3.21Z"></path></g><path d="M242.8,118.31s2.08-8.58-5.34-11.44-10.53,4.29-10.53,4.29Z" style="fill:#263238"></path><path d="M256.85,138.67a3.07,3.07,0,0,1-.76.35,15.67,15.67,0,0,1-2.17.65,23.13,23.13,0,0,1-14.67-1.44,16.85,16.85,0,0,1-2-1.06c-.45-.28-.69-.46-.67-.49s1.07.51,2.82,1.21a26.06,26.06,0,0,0,7.12,1.74,26.51,26.51,0,0,0,7.33-.32C255.7,139,256.82,138.58,256.85,138.67Z" style="fill:#455a64"></path><path d="M244.22,199.61c-.55,0-16.41-.38-18.59,1.26s-2.92,4.32-1.42,8.4,6,10.08,8.86,11.72,35.42,2.86,39,.54,6.85-15.5,4.81-18.49S244.22,199.61,244.22,199.61Z" style="fill:#263238"></path><g style="opacity:0.30000000000000004"><path d="M276.64,208.56a2.71,2.71,0,0,0-1.52-.72l-29.88-7-14.43,18.88c6.92-.6,12.21-7.29,19.14-7.72,2.7-.17,5.34.65,7.93,1.42a32.07,32.07,0,0,0,9.52,1.75,11.65,11.65,0,0,0,8.71-3.64C276.82,210.69,277.35,209.39,276.64,208.56Z"></path></g><polygon points="236.04 221.67 236.04 229.44 268.21 241.7 270.39 238.43 269.87 221.78 253.22 219.49 236.04 221.67" style="fill:#263238"></polygon><path d="M270.8,222.16c0,.15-8.16.11-18.21-.08s-18.2-.47-18.2-.61,8.15-.11,18.21.09S270.8,222,270.8,222.16Z" style="fill:#455a64"></path><path d="M215.59,141.56s3.39-6.8,17-3.12a30.35,30.35,0,0,0,17.55,7.08c11,.85,15.53-.52,15.53-.52l-2.94-2.57s13.74-2.85,19.68,7,8.16,20.49,5,34.08c0,0-1.58,7.8-2.33,11.08-.46,2-.45,1.55-.45,1.55l-3.68,11a15.51,15.51,0,0,1-14.43,4c-9.06-2-19.82-6.79-28.87-8.49S219,203,219,203l-8.77-15.57Z" style="fill:#e0e0e0"></path><path d="M215.59,141.56s0,.28-.07.82-.14,1.35-.25,2.39c-.24,2.11-.58,5.19-1,9.15-.91,8-2.23,19.41-3.85,33.51l0-.11,8.8,15.55-.24-.11a57.66,57.66,0,0,1,14.62-.83c5.11.36,10.2,1.93,15.35,3.58s10.39,3.6,15.89,5a18,18,0,0,0,8.43.5,15,15,0,0,0,7.55-4l0,.09c.54-1.63,1.13-3.39,1.72-5.15.66-2,1.31-4,2-5.89l.5.09s0,0,0-.09a.26.26,0,0,0-.42,0v0s0,0,0,0l0-.13.08-.28.15-.6.26-1.19.51-2.4c.33-1.59.67-3.18,1-4.76.65-3.15,1.4-6.25,1.74-9.36a42.32,42.32,0,0,0-1.61-18,44.39,44.39,0,0,0-3.48-8c-.35-.62-.69-1.25-1.06-1.84s-.78-1.16-1.22-1.69a18.18,18.18,0,0,0-1.44-1.47l-.79-.65a5.16,5.16,0,0,0-.83-.58,18.15,18.15,0,0,0-7.46-2.62,26.47,26.47,0,0,0-7.61.16l.1-.36c1,.9,2,1.74,2.93,2.58l.3.26-.37.09a28.89,28.89,0,0,1-5.21.69c-1.7.1-3.37.11-5,.08a56.33,56.33,0,0,1-9.24-.81,30.42,30.42,0,0,1-13.79-6.62l.06,0a28.48,28.48,0,0,0-7.76-1.1,14.12,14.12,0,0,0-5.59,1.14,8.63,8.63,0,0,0-2.86,2,7.73,7.73,0,0,0-.57.7l-.17.25a4.26,4.26,0,0,1,.68-1,8.74,8.74,0,0,1,2.87-2.08,14.17,14.17,0,0,1,5.63-1.21,28.41,28.41,0,0,1,7.84,1h0l0,0a30.27,30.27,0,0,0,13.68,6.47,56.52,56.52,0,0,0,9.18.77c1.61,0,3.27,0,5-.1a28,28,0,0,0,5.11-.69l-.08.36c-.95-.83-1.91-1.68-2.94-2.57l-.33-.3.43-.07a26.67,26.67,0,0,1,7.74-.19,18.6,18.6,0,0,1,7.66,2.67,5.1,5.1,0,0,1,.86.6l.82.67c.54.45,1,1,1.49,1.51s.84,1.17,1.26,1.75.72,1.23,1.08,1.85a45.4,45.4,0,0,1,3.52,8,42.67,42.67,0,0,1,1.66,18.25c-.35,3.14-1.09,6.26-1.74,9.41-.34,1.58-.67,3.17-1,4.76-.16.8-.33,1.6-.5,2.4l-.26,1.2-.15.61-.09.3-.05.17,0,.11,0,0a.27.27,0,0,1-.44,0,.46.46,0,0,1,0-.17l.51.09-2,5.88c-.59,1.77-1.17,3.53-1.72,5.16l0,.06,0,0a15.49,15.49,0,0,1-7.83,4.12,18.34,18.34,0,0,1-8.66-.51c-5.55-1.42-10.78-3.35-15.93-5s-10.19-3.22-15.22-3.59a57.17,57.17,0,0,0-14.5.8l-.16,0-.08-.14L210,187.51l0-.06v-.06c1.7-14.11,3.07-25.57,4-33.52.49-4,.87-7,1.13-9.14l.3-2.37C215.54,141.83,215.59,141.56,215.59,141.56Z" style="fill:#263238"></path><path d="M275.77,150.64c-.21,0-.35.11-.49.23A.57.57,0,0,0,275.77,150.64Z" style="fill:#DC1FFF"></path><polygon points="275.27 150.87 275.27 150.87 275.28 150.87 275.27 150.87" style="fill:#DC1FFF"></polygon><path d="M257.36,183l.09-.12A.38.38,0,0,0,257.36,183Z" style="fill:#DC1FFF"></path><path d="M269,157.3l.2.21c-.29.34-.33-.12-.55.24.2.38-.47.48-.41.72,0,0-.16.12-.24,0,.12.19-.1.19-.14.32s.07,0,.14,0l-.13.27c-.13,0-.24,0-.18-.13a47.13,47.13,0,0,0-3.54,3.77c.2,0,.28-.23.53-.13,0,.26-.24.21-.19.38-.34-.19-.38.29-.78.16l.12.19h-.17c-.44.86,0,.23-.64.83-.29.38-.22.75-.48.88,0,0,.2,0,.16.11-.16-.11-.12.34-.3.26-.07.11-.35.39-.06.47-.14,0-.42.19-.36,0-.09.08-.19.14-.21.25l.16-.07c-.24.33-.53.36-.53.72l.18,0c-.15.19-.27.36-.52.26l.1-.24a2.29,2.29,0,0,0-.52.84l.08-.08c-.08.49-1.39,2.3-1.4,2.81h.27l-.09.37s-.39-.55-.32-.53c-.46.55-2.81,3.48-3.35,3.89-.26.13-.27-.17-.3-.19-.15.29.07.24-.12.44-.08,0-.11-.12-.11-.17-.06.11-.19.15-.12.22s.3.14.46.2l-.25.26-.11-.12c-.05.06.19.44-.1.65-.44.4-.82.92-1.24,1.34-.07-.06,0-.2,0-.33-.05.06-.12.17-.22.18.22,0-.08.26.05.22,0,.58-.63.78-.69,1.24.24.25,3.93,4.53,4.24,4.8a.71.71,0,0,1-.22.18c.09,0,.28-.11.32-.24l-.15-.16c.13-.27.14,0,.32-.18.14.1,0,.32-.14.51.16-.15.39-.21.29-.41.19-.09.16.17.37,0s.08-.44.28-.51l0,0c.45-.22.26-.71.68-.9v.07c.18,0,.27-.36.53-.49-.08,0-.22,0-.13-.13.29-.16.34-.4.6-.47v-.28c.73-.79,3.34-4.16,4-5v.05c1-1.3,3.26-3.83,4.2-5.28.3-.08.51-.38.73-.55-.16.06-.22-.06-.13-.14.56-.62-.06-.12.45-.81a32.91,32.91,0,0,1,3.79-4.08c.11-.52.64-.83.82-1.28l0,.07c.25-.43,2.25-2.36,2.55-2.84l-.08,0c.21-.48.38-.24.7-.48-.25-.15-.09-.58,0-.71l0,0a9.13,9.13,0,0,1,.54-1.12l.11.11a3.31,3.31,0,0,1,.71-1,5.64,5.64,0,0,0,1.51-1.53l.65-.07v-.08s-3.57-4.14-5.08-4.17l-.11-.11-.11.16c-.21.12-.14.32-.25.21l.22-.23c-.18.14-.14,0-.15-.16a.61.61,0,0,1-.24.15c0,.07.07,0,.12,0s0,.36-.2.43-.2-.16-.39,0a41.22,41.22,0,0,0-3.08,3.12c-.07,0,0-.05,0-.1-.24.38-.52.66-.74,1a.45.45,0,0,1-.29,0A10,10,0,0,1,269,157.3Z" style="fill:#DC1FFF"></path><path d="M251.48,156.87c0,.21.16.32.3.44A.57.57,0,0,0,251.48,156.87Z" style="fill:#DC1FFF"></path><polygon points="251.78 157.31 251.78 157.31 251.78 157.31 251.78 157.31" style="fill:#DC1FFF"></polygon><path d="M285.55,173.64l-.13-.09A.38.38,0,0,0,285.55,173.64Z" style="fill:#DC1FFF"></path><path d="M258.89,162.67l.19-.21c.36.26-.09.34.28.52.37-.23.53.43.77.35,0,0,.13.15.05.24.17-.14.19.08.33.12s0-.08,0-.15l.28.11c.05.13,0,.25-.12.19.56.51,3.33,2.88,4,3.32,0-.2-.25-.27-.17-.53.26,0,.22.24.39.18-.17.35.32.36.21.77l.19-.13v.17c.89.41.24,0,.87.61.41.28.78.19.92.45,0,0,0-.2.1-.16-.1.16.35.1.28.29.11.06.41.33.47,0,0,.14.22.41,0,.37.09.08.16.18.26.19l-.07-.15c.34.22.39.52.75.51l-.06-.18c.21.14.38.26.29.52l-.25-.1a2.38,2.38,0,0,0,.88.5l-.09-.08c.5.07,2.39,1.35,2.91,1.35l0-.27.37.09s-.54.39-.52.32c.58.45,3.63,2.79,4.07,3.34.14.26-.17.27-.19.3.31.15.25-.07.46.12,0,.08-.12.11-.17.11.11.06.16.19.22.12s.14-.3.19-.47l.27.25-.11.11c.06.06.43-.19.66.1.42.45,1,.83,1.41,1.25-.07.07-.21,0-.34,0,.06.05.17.12.18.22,0-.23.27.08.23-.05.59,0,.81.64,1.28.69.25-.24,4.48-4,4.74-4.31a.67.67,0,0,1,.19.22c0-.09-.12-.29-.25-.33l-.16.16c-.28-.13,0-.15-.2-.32.1-.15.33,0,.52.13-.15-.15-.22-.39-.42-.29-.1-.19.16-.16,0-.37s-.45-.08-.53-.28l0,0c-.24-.44-.73-.25-.94-.68h.07c0-.18-.37-.27-.51-.53,0,.08,0,.22-.14.13-.17-.29-.41-.34-.49-.6h-.29c-.82-.74-4.36-3.37-5.25-4.06h0c-1.37-1-4.08-3.25-5.63-4.16-.1-.3-.42-.51-.62-.72.08.15,0,.21-.13.13-.67-.55-.12.06-.86-.43a40.94,40.94,0,0,1-4.51-3.67c-.54-.09-.91-.61-1.4-.75l.08,0a14.91,14.91,0,0,1-1.59-1.18,17.67,17.67,0,0,0-1.66-1.2l.05.08c-.52-.17-.3-.36-.6-.66-.11.26-.58.15-.73.07l0-.05a9.81,9.81,0,0,1-1.24-.43l.1-.12a3.93,3.93,0,0,1-1.14-.6,5.57,5.57,0,0,0-1.88-1.32l-.21-.65H255s-.86,1.06-1.68,2.32-1.59,2.7-1.48,3.45l-.09.12.17.08c.16.19.34.09.25.21l-.26-.17c.17.15,0,.14-.13.17a.51.51,0,0,1,.18.21c.07,0,0-.07,0-.12s.35,0,.44.12-.12.22.1.37c1.16.86,2.23,1.78,3.47,2.59,0,.07-.05,0-.1,0,.41.19.72.44,1.09.62a.48.48,0,0,1,0,.29A9.6,9.6,0,0,1,258.89,162.67Z" style="fill:#DC1FFF"></path><path d="M367.84,48.34c-2.7-1.35-3.85-5.54-.91-6.59s6.44.45,9.64,1.17c5.38,1.23,11.63,0,15.45-3.07a5.93,5.93,0,0,0,2.24-3,2.81,2.81,0,0,0-1.46-3.12c-1.81-1-4.35-.49-6.59-.26a21.16,21.16,0,0,1-13.13-2.83c.9-.82,2.68-.66,3.9-.13a29.24,29.24,0,0,0,3.57,1.7c3.47,1,7-1.4,10.64-1.75A11.89,11.89,0,0,1,401,34.6c2.4,2.82,3.29,6.44,1.73,9.57s-5.76,5.56-10.26,5.48C386,49.52,381.29,44.81,375,44a9.86,9.86,0,0,0-5.05.49,3.87,3.87,0,0,0-2.06,3.88" style="fill:#ebebeb"></path><path d="M383,21.45c-3,2.25-8,2.81-11.76,1.32-.79-.31-1.53-.71-2.37-1a4.2,4.2,0,0,0-2.62,0A2,2,0,0,0,364.86,24a5.78,5.78,0,0,0,1.38,2.42,5.28,5.28,0,0,0,3.35,2.31c-1.19-.47-2.06-2.41-1.34-3.26a5,5,0,0,1,3.45-1.33,22.39,22.39,0,0,1,4,.35,12.13,12.13,0,0,0,5-.11C382.25,23.94,383.47,22.64,383,21.45Z" style="fill:#ebebeb"></path><rect x="283.28" y="231.48" width="12.33" height="25.89" rx="2.5" transform="translate(-48.8 73.81) rotate(-13.41)" style="fill:#455a64"></rect><circle cx="259.1" cy="439.81" r="10.5" transform="translate(-246.54 369.81) rotate(-51.62)" style="fill:#263238"></circle><path d="M265.09,439.57a5.45,5.45,0,1,1-5.45-5.44A5.45,5.45,0,0,1,265.09,439.57Z" style="fill:#455a64"></path><path d="M316.71,440.44a17,17,0,0,0-5.95-6l-22.57-13.81-24.48-1.07-9.6,10.39,14.54,18.87,48.57-.08A9.17,9.17,0,0,0,316.71,440.44Z" style="fill:#e0e0e0"></path><path d="M316.71,440.44a10.29,10.29,0,0,1,.91,2,8,8,0,0,1,.44,2.66,11.3,11.3,0,0,1-.73,3.63l0,.08h-.09l-48.57.21h-.12l-.08-.09-12.31-16-2.23-2.9-.14-.18.15-.16,9.6-10.38.08-.09h.12l24.48,1.1h.05l.05,0,21.64,13.35a19.48,19.48,0,0,1,5.43,4.55,8.61,8.61,0,0,1,1.34,2.12,6.11,6.11,0,0,1-.34-.54,12.78,12.78,0,0,0-1.1-1.5,20.17,20.17,0,0,0-5.46-4.42l-21.74-13.19.11,0-24.48-1,.19-.08c-3.09,3.36-6.3,6.83-9.59,10.39l0-.33,2.23,2.9,12.3,16-.2-.1,48.57.05-.11.08a11.62,11.62,0,0,0,.77-3.55,8.42,8.42,0,0,0-.38-2.63,15.21,15.21,0,0,0-.58-1.54C316.77,440.62,316.71,440.44,316.71,440.44Z" style="fill:#263238"></path><g style="opacity:0.30000000000000004"><path d="M264.11,419.29a10.9,10.9,0,1,0,21.7,0"></path></g><polygon points="271.09 332.94 271.09 339.93 267.5 351.05 284.63 355.45 289.83 337.43 278.67 330.75 271.09 332.94" style="fill:#263238"></polygon><path d="M266.21,320.84v0l0,.12c.42-.06,1-.33,1.22-.38v.06c.17,0,.62-.21.56-.52.41.09.35.39.87.21l-.09,0c.6-.12,3.53.06,4-.05l0,.06c.48-.18,1.1,0,1.58-.28a34,34,0,0,0,5.89,0c.89-.1.06-.23.95-.23.12,0,.17-.13,0-.2a2.3,2.3,0,0,1,1,.17c1.79-.31,5.36-.39,7.1-.52l0,0c1.14-.06,5.62-.45,6.76-.44l.22-.19c.25.14.47,0,.8.13.17,0,.09-.17,0-.21.29.12.59,0,.75.06l0,.07c.45.19.69-.31,1.19-.13v0c.21.11.43-.09.6-.15s0,.24.24.31c.07-.19.25-.1.45-.07.18-1.46.37-2.94.55-4.42-.57,0-1.16,0-1.71-.07s-.54.38-.64.37l0-.17-.4,0c.07.17,0,.44.17.52,0,.1-.14,0-.28,0,.05,0,.15-.16.07-.2-.32,0-.11.13-.48.21,0,0,.25-.26-.05-.38a52.45,52.45,0,0,0-5.86.14c0,.07.16-.63.2-.63l-.37.19.21.21c-.44.35-3,.69-3.42,1h.13a2.72,2.72,0,0,1-1.09.23l.27-.1c-.12-.27-.35-.24-.62-.2l.17.1c-.28.27-.54.07-1,.13l.18.07c-.09.07-.23,0-.36,0,.23-.13-.17-.17-.26-.3.17.27-.28.27-.42.31-.08-.2-.41.17-.45,0-.14.07,0,.2,0,.2-.31-.09-.55.25-1.09.32-1,0-.14-.17-1.18.16l-.14-.14,0,.24c-.21-.4-.63-.05-.75-.45-.1.17-.23,0-.46.14.13.27.41.13.54.29-.91.17-5,.37-5.85.39.14,0,.09-.17-.05-.23l-.31.12c0,.06.14.06.09.13s-.31-.08-.36.16c0-.14-.22-.12-.22-.16-.13.25-.77-.15-.9.3-.45.13-.14-.26-.63-.2v.31a11,11,0,0,0-2.54.46.52.52,0,0,0-.24-.22c-.44.13-.89.18-1.38.33,0,0,.09,0,0-.11-1.28.22-2.54.32-3.82.42.23.86.46,1.72.69,2.6Z" style="fill:#e0e0e0"></path><path d="M299.78,319c.3,0,.07.2.37.11l0-.23h0v-.13C300,318.81,299.76,318.86,299.78,319Z" style="fill:#e0e0e0"></path><polygon points="259.49 279.4 259.49 279.4 259.49 279.4 259.49 279.4 259.49 279.4" style="fill:#e0e0e0"></polygon><path d="M259.25,280.48c-.15.71-.36,1.78-.54,3.18a36.47,36.47,0,0,0-.28,5.18,28.11,28.11,0,0,0,.94,6.91c1.25,4.37,2.68,9.56,4.26,15.44.42,0,.82,0,1.14,0a4.44,4.44,0,0,0,1.38-.35V311c.46-.13,1.06-.48,1.34-.58v.07c.19-.05.66-.3.55-.6.47,0,.44.33,1,.08l-.09,0c.65-.2,3.92-.38,4.48-.55l-.05.08c.51-.24,1.22-.12,1.73-.45a53,53,0,0,0,6.56-.46c1-.16.06-.23,1.05-.29.14,0,.19-.14,0-.21a3,3,0,0,1,1.08.12,76.88,76.88,0,0,1,7.93-.73l-.05,0c1.27-.1,6.3-.41,7.58-.35l.26-.19c.27.16.52,0,.88.16.19,0,.12-.16,0-.2.31.13.66,0,.84.09l-.06.07a.74.74,0,0,0,.41,0,1.1,1.1,0,0,0,0-.18c.1-.91.21-1.81.25-2.7,0-.45.05-.9.05-1.35s0-.89,0-1.34a95.66,95.66,0,0,0-.82-10.54,137.56,137.56,0,0,0-3.94-19.6c-.86-3.07-1.88-6-2.93-8.84a62.28,62.28,0,0,0-3.54-8,15.31,15.31,0,0,0-2.4-3.37,5.75,5.75,0,0,0-1.6-1.19c-.15-.08-.3-.13-.45-.2a.45.45,0,0,0-.2-.05.8.8,0,0,0-.21.05,3.7,3.7,0,0,0-.83.49,28.3,28.3,0,0,0-2.85,2.59c-.89.9-1.73,1.8-2.55,2.69-3.26,3.55-6.09,6.88-8.56,9.81s-4.57,5.48-6.28,7.57l-3.93,4.82-1,1.25-.35.43-.06.27Z" style="fill:#e0e0e0"></path><path d="M298.79,329.66c.16-1.25.33-2.5.5-3.77-.37.05-.81-.08-1.15.24.12.08-.3,0-.14.2-.08-.07-.21,0-.29,0,.13-.07.26-.13.27-.23-.63,0-1.31.05-1.94,0-.38-.08-.49.39-.58.38v-.17h-.37c.07.17,0,.44.17.51,0,.11-.13,0-.26.06.05,0,.14-.16.06-.2-.29,0-.09.13-.44.22,0,0,.23-.26-.05-.37-.71-.13-4.67.14-5.43.18,0,.07.14-.64.19-.63l-.35.19.19.21c-.4.35-2.75.64-3.19.93h.13a2.59,2.59,0,0,1-1,.2l.26-.1c-.1-.27-.32-.25-.57-.22l.16.11c-.27.26-.51.05-.94.1l.17.07c-.09.07-.21,0-.34,0,.22-.12-.16-.17-.23-.31.15.28-.27.26-.4.29-.07-.21-.39.16-.42,0-.13.06,0,.2,0,.21-.29-.12-.52.21-1,.26-.89,0-.12-.17-1.11.09l-.12-.14-.05.24c-.19-.41-.59-.09-.69-.5-.09.17-.2,0-.43.12.11.28.37.15.49.32a47.43,47.43,0,0,1-5.47-.05c.13,0,.1-.16,0-.23l-.31.09c0,.06.13.07.08.13s-.29-.11-.35.13c0-.14-.2-.15-.19-.18-.15.23-.71-.23-.86.21-.43.08-.11-.28-.57-.26l0,.3a10.84,10.84,0,0,0-2.4.18.53.53,0,0,0-.2-.24c-.43.08-.85.07-1.32.15,0,0,.09,0,0-.1h-.14c.77,2.93,1.56,6,2.38,9.07Z" style="fill:#e0e0e0"></path><path d="M300.21,318.76h.13c.18-1.39.36-2.8.53-4.2h0l0,0,0-.21h-.14C300.58,315.82,300.39,317.3,300.21,318.76Z" style="fill:#263238"></path><path d="M300.2,318.78v.13l.14,0v-.12h-.14Z" style="fill:#263238"></path><path d="M259.84,279l1-1.25,3.93-4.82c1.71-2.09,3.81-4.64,6.28-7.57s5.3-6.26,8.56-9.81c.82-.89,1.66-1.79,2.55-2.69a28.3,28.3,0,0,1,2.85-2.59,3.7,3.7,0,0,1,.83-.49.8.8,0,0,1,.21-.05.45.45,0,0,1,.2.05c.15.07.3.12.45.2a5.75,5.75,0,0,1,1.6,1.19,15.31,15.31,0,0,1,2.4,3.37,62.28,62.28,0,0,1,3.54,8c1.05,2.84,2.07,5.77,2.93,8.84a137.56,137.56,0,0,1,3.94,19.6,95.66,95.66,0,0,1,.82,10.54c0,.45,0,.89,0,1.34s0,.9-.05,1.35c0,.89-.15,1.79-.25,2.7a1.1,1.1,0,0,1,0,.18l.14,0c.08-.74.15-1.43.21-2,.66-6.79-1.4-24.58-6.16-38.5-4.54-13.26-7.2-16-9.61-16.91s-26.7,29.77-26.71,29.79h0Z" style="fill:#263238"></path><path d="M300.28,319.29l0-.33h0A2.18,2.18,0,0,1,300.28,319.29Z" style="fill:#263238"></path><path d="M298.79,329.66l-28.27,7.62c-.82-3.11-1.61-6.14-2.38-9.07H268c1.41,5.37,2.41,9.21,2.41,9.21l28.47-7.67s.2-1.54.51-3.89l-.13,0C299.12,327.16,299,328.41,298.79,329.66Z" style="fill:#263238"></path><path d="M259.37,295.75a28.11,28.11,0,0,1-.94-6.91,36.47,36.47,0,0,1,.28-5.18c.18-1.4.39-2.47.54-3.18l.18-.81.06-.27h0c-.22.87-2.41,9,0,17.08.82,2.77,2.37,8.45,4,14.72h.1C262.05,305.31,260.62,300.12,259.37,295.75Z" style="fill:#263238"></path><path d="M266.2,321h0l0-.12Z" style="fill:#263238"></path><path d="M265.51,318.25h-.1l.69,2.63.1,0C266,320,265.74,319.11,265.51,318.25Z" style="fill:#263238"></path><path d="M301.21,307.05l.06-.07c-.18-.11-.53,0-.84-.09.09,0,.16.18,0,.2-.36-.12-.61,0-.88-.16l-.26.19c-1.28-.06-6.31.25-7.58.35l.05,0a76.88,76.88,0,0,0-7.93.73,3,3,0,0,0-1.08-.12c.19.07.14.2,0,.21-1,.06-.06.13-1.05.29a53,53,0,0,1-6.56.46c-.51.33-1.22.21-1.73.45l.05-.08c-.56.17-3.83.35-4.48.55l.09,0c-.55.25-.52,0-1-.08.11.3-.36.55-.55.6v-.07c-.28.1-.88.45-1.34.58v-.17a4.44,4.44,0,0,1-1.38.35c-.32,0-.72,0-1.14,0h-.1c.62,2.31,1.25,4.7,1.88,7.06h.1c1.28-.1,2.54-.2,3.82-.42.05.07,0,.07,0,.11.49-.15.94-.2,1.38-.33a.52.52,0,0,1,.24.22,11,11,0,0,1,2.54-.46v-.31c.49-.06.18.33.63.2.13-.45.77-.05.9-.3,0,0,.22,0,.22.16.05-.24.23-.09.36-.16s0-.07-.09-.13l.31-.12c.14.06.19.19.05.23.86,0,4.94-.22,5.85-.39-.13-.16-.41,0-.54-.29.23-.17.36,0,.46-.14.12.4.54.05.75.45l0-.24.14.14c1-.33.23-.15,1.18-.16.54-.07.78-.41,1.09-.32-.05,0-.18-.13,0-.2,0,.2.37-.17.45,0,.14,0,.59,0,.42-.31.09.13.49.17.26.3.13,0,.27,0,.36,0l-.18-.07c.46-.06.72.14,1-.13l-.17-.1c.27,0,.5-.07.62.2l-.27.1a2.72,2.72,0,0,0,1.09-.23h-.13c.46-.3,3-.64,3.42-1l-.21-.21.37-.19s-.16.7-.2.63a52.45,52.45,0,0,1,5.86-.14c.3.12.05.34.05.38.37-.08.16-.23.48-.21.08,0,0,.17-.07.2.14,0,.27.05.28,0-.18-.08-.1-.35-.17-.52l.4,0,0,.17c.1,0,.24-.46.64-.37s1.14.05,1.71.07h.14c.33-2.66.63-5.23.86-7.3l-.14,0A.74.74,0,0,1,301.21,307.05Z" style="fill:#DC1FFF"></path><path d="M300.87,314.57v0l0,0Z" style="fill:#DC1FFF"></path><path d="M300.34,318.77h-.07" style="fill:none;stroke:#ff8270;stroke-linecap:round;stroke-linejoin:round;stroke-width:0px"></path><path d="M300.19,318.91h0l0,.23c-.3.09-.07-.14-.37-.11,0-.18.21-.23.42-.26h0c-.2,0-.38-.12-.45.07-.21-.07,0-.23-.24-.31s-.39.26-.6.15v0c-.5-.18-.74.32-1.19.13l0-.07c-.16-.1-.46.06-.75-.06.08,0,.16.18,0,.21-.33-.12-.55,0-.8-.13l-.22.19c-1.14,0-5.62.38-6.76.44l0,0c-1.74.13-5.31.21-7.1.52a2.3,2.3,0,0,0-1-.17c.16.07.11.21,0,.2-.89,0-.06.13-.95.23a34,34,0,0,1-5.89,0c-.48.29-1.1.1-1.58.28l0-.06c-.52.11-3.45-.07-4,.05l.09,0c-.52.18-.46-.12-.87-.21.06.31-.39.5-.56.52v-.06c-.25.05-.8.32-1.22.38h0v-.17h0l-.1,0c.69,2.6,1.34,5.09,1.93,7.33h.25c0,.07,0,.07,0,.1.47-.08.89-.07,1.32-.15a.53.53,0,0,1,.2.24,10.84,10.84,0,0,1,2.4-.18l0-.3c.46,0,.14.34.57.26.15-.44.71,0,.86-.21,0,0,.2,0,.19.18.06-.24.22-.06.35-.13s0-.07-.08-.13l.31-.09c.12.07.15.2,0,.23a47.43,47.43,0,0,0,5.47.05c-.12-.17-.38,0-.49-.32.23-.16.34.05.43-.12.1.41.5.09.69.5l.05-.24.12.14c1-.26.22-.12,1.11-.09.51-.05.74-.38,1-.26,0,0-.16-.15,0-.21,0,.21.35-.16.42,0,.13,0,.55,0,.4-.29.07.14.45.19.23.31.13,0,.25.05.34,0l-.17-.07c.43,0,.67.16.94-.1l-.16-.11c.25,0,.47-.05.57.22l-.26.1a2.59,2.59,0,0,0,1-.2H286c.44-.29,2.79-.58,3.19-.93l-.19-.21.35-.19s-.16.7-.19.63c.76,0,4.72-.31,5.43-.18.28.11.06.34.05.37.35-.09.15-.23.44-.22.08,0,0,.17-.06.2.13,0,.25.05.26-.06-.16-.07-.1-.34-.17-.51h.37v.17c.09,0,.2-.46.58-.38.63.05,1.31,0,1.94,0,0,.1-.14.16-.27.23.08,0,.21,0,.29,0-.16-.17.26-.12.14-.2.34-.32.78-.19,1.15-.24l.13,0,.86-6.58a2.18,2.18,0,0,0,0-.34h0v-.07Z" style="fill:#DC1FFF"></path><g style="opacity:0.30000000000000004"><path d="M288.51,251.41c-10.28,11.15-19.85,20.93-30.12,32.08l0,5.89c6,1.11,10.3-1.44,14.95-5.42s7.16-7.61,10.46-12.77a67.19,67.19,0,0,0,5.67-11.11C290.7,256.34,290.25,252.44,288.51,251.41Z"></path></g><path d="M211.11,339.93c-.9,1.94-3.92,18.86-3.92,18.86s27,8.45,26.79,7.91,2.74-24.33,2.74-24.33Z" style="fill:#263238"></path><circle cx="196.45" cy="461.99" r="11.68" transform="translate(-298.21 547.62) rotate(-76.78)" style="fill:#263238"></circle><path d="M199.12,462c0,3-2.16,5.44-4.84,5.44s-4.84-2.43-4.84-5.44,2.17-5.45,4.84-5.45S199.12,459,199.12,462Z" style="fill:#455a64"></path><path d="M210.66,352.23S196,363.42,194.6,381.78s-1.53,54.57-1.53,54.57l20.7,3.22,24.16-69.84Z" style="fill:#e0e0e0"></path><path d="M210.66,352.23a4.68,4.68,0,0,1,.48.28l1.41.88,5.43,3.43L238,369.58l.12.07-.05.14L214,439.66l-.08.2-.21,0-1.86-.29L193,436.6l-.22,0v-.22c.07-12.68.27-24.59.62-35.32.18-5.36.39-10.43.69-15.15q.12-1.77.24-3.48c.07-1.13.26-2.24.39-3.33a38.32,38.32,0,0,1,1.47-6.12,43.11,43.11,0,0,1,4.62-9.67,48.42,48.42,0,0,1,4.87-6.4,49.79,49.79,0,0,1,3.59-3.56c.44-.37.77-.65,1-.83a3.57,3.57,0,0,1,.36-.26,2.92,2.92,0,0,1-.33.29l-1,.87c-.84.79-2.06,2-3.51,3.61a48.8,48.8,0,0,0-4.79,6.42,43.49,43.49,0,0,0-4.52,9.64,38.09,38.09,0,0,0-1.43,6.06c-.11,1.09-.3,2.18-.37,3.31s-.15,2.29-.23,3.47c-.28,4.72-.47,9.79-.63,15.15-.32,10.72-.5,22.63-.56,35.3l-.21-.26L212,439l1.86.29-.29.17c9.45-27.22,18-51.85,24.23-69.82l.07.22L218,357l-5.41-3.53-1.4-.93Z" style="fill:#263238"></path><path d="M267.39,349.06c.43-1.67-6,10-7.79,22.5-1.09,7.49-.19,15.73.81,24,.69,5.66,2.7,17.18,2.7,17.18l5.76,8.7,17.51-3.12s1.71-22.72,3.45-35.83c1.44-10.86,4.91-27.54,6.45-31.7Z" style="fill:#e0e0e0"></path><path d="M267.39,349.06h.53l1.52.07,5.77.3,21.08,1.16h.24l-.08.24a138.11,138.11,0,0,0-3.27,13.59c-1,4.92-2,10.2-2.79,15.77-1.54,11.17-2.57,23.52-3.62,36.46,0,.56-.09,1.12-.13,1.67v.2l-.2,0-17.51,3.11-.17,0-.09-.14c-2-3-3.89-5.89-5.76-8.7l0-.05v-.05c-.81-4.72-1.57-9.27-2.21-13.64s-1.08-8.57-1.42-12.54a76.24,76.24,0,0,1-.21-11.22,51.54,51.54,0,0,1,1.54-9.5A75.17,75.17,0,0,1,265.11,353c.66-1.44,1.23-2.53,1.64-3.25a7.21,7.21,0,0,1,.52-.79.24.24,0,0,1,.11-.09c.08,0,0,.07,0,.09l0,.08a.45.45,0,0,1,0-.08s0-.08,0-.06-.06.05-.09.09a7.8,7.8,0,0,0-.47.8c-.39.73-.93,1.83-1.57,3.28A77.9,77.9,0,0,0,260.87,366a50.77,50.77,0,0,0-1.47,9.45,77.16,77.16,0,0,0,.26,11.16c.35,4,.83,8.15,1.46,12.51s1.41,8.92,2.23,13.63l0-.1,5.77,8.7-.26-.11,17.51-3.12-.22.23c0-.55.09-1.11.13-1.67,1.05-12.95,2.09-25.3,3.67-36.49.83-5.58,1.83-10.86,2.83-15.79a135.38,135.38,0,0,1,3.35-13.63l.17.25-21.2-1.37-5.72-.39-1.47-.11Z" style="fill:#263238"></path><path d="M288.74,243.71c-.47-1.67-2.22-5.7-5.06-7.59-2.64-1.75-9.05-3-14.06-3.36l-21.51-2.17c-2.67,0-6.89-1-9.39-1.19A20.49,20.49,0,0,0,219.67,239a2.26,2.26,0,0,0-.16.26c-3,5-3.11,14.91-3.11,14.91l30.37,31.45s12.85,2.89,17.06,0c3.53-2.44,10.86-10.11,15.39-16.46,5.37-7.53,7.66-12.55,8.71-15.84S289.72,247.16,288.74,243.71Z" style="fill:#e0e0e0"></path><path d="M224.93,251.79s.3-8.51,4.79-8.06,12.35,9.45,15.15,14.52,7.88,19.29,5.79,22.73-6.58-1.65-6.58-1.65S229,267,224.93,251.79Z" style="fill:#263238"></path><path d="M247.75,280.76c-.54-4.61-11.81-28.64-16.37-32.14,0,0-4-3.27-9.54,0s-18.76,16.15-18.46,33.55,6.86,62.15,6.86,62.15L243,341.91s1.78-19.36,2.24-29.31C245.75,301.4,248.31,285.51,247.75,280.76Z" style="fill:#e0e0e0"></path><path d="M247.75,280.76s.06.38.11,1.12,0,1.86-.06,3.3c-.15,2.88-.57,7.08-1.13,12.43-.27,2.67-.58,5.63-.85,8.85s-.42,6.71-.64,10.45c-.47,7.47-1.15,15.87-2,25l0,.19-.19,0-32.76,2.44H210l0-.23c-1.24-8.62-2.47-17.71-3.62-27.06-1-8.33-2-16.47-2.6-24.36-.33-3.95-.6-7.83-.6-11.65a34.35,34.35,0,0,1,1.89-11,45.35,45.35,0,0,1,11.09-17.31c.57-.58,1.18-1.1,1.77-1.65s1.2-1,1.85-1.49a14.78,14.78,0,0,1,4-2.31A8.08,8.08,0,0,1,232,249a20,20,0,0,1,2.5,3.19c.72,1.1,1.4,2.18,2,3.26,1.26,2.14,2.34,4.21,3.35,6.15,2,3.9,3.55,7.32,4.75,10.15s2,5.07,2.54,6.61a12,12,0,0,1,.57,2.41s-.06-.21-.15-.61a17.93,17.93,0,0,0-.52-1.76c-.53-1.53-1.39-3.76-2.62-6.57s-2.83-6.22-4.83-10.1c-1-1.93-2.11-4-3.37-6.11-.62-1.08-1.3-2.15-2-3.24a20.75,20.75,0,0,0-2.46-3.11,4.84,4.84,0,0,0-1.65-1.16,7.87,7.87,0,0,0-2-.62,8.55,8.55,0,0,0-4.24.39,14.36,14.36,0,0,0-3.9,2.26c-.63.45-1.21,1-1.82,1.48s-1.18,1.06-1.75,1.64a45,45,0,0,0-10.94,17.16,33.94,33.94,0,0,0-1.84,10.88c0,3.79.28,7.67.61,11.6.65,7.88,1.59,16,2.61,24.35,1.15,9.34,2.37,18.43,3.61,27.05l-.27-.22L243,341.69l-.21.2c.84-9.15,1.54-17.55,2-25,.24-3.73.38-7.23.69-10.46s.61-6.18.91-8.85c.59-5.34,1.06-9.54,1.25-12.41.1-1.44.12-2.54.12-3.28,0-.36,0-.64,0-.85A2,2,0,0,1,247.75,280.76Z" style="fill:#263238"></path><circle cx="275.04" cy="418.32" r="11.34" transform="translate(-144.39 144.98) rotate(-23.58)" style="fill:#263238"></circle><g style="opacity:0.30000000000000004"><path d="M288.54,242.23a5.78,5.78,0,0,0-2.62-.44,258.89,258.89,0,0,1-55.43-7c-1.87-.45-4-.89-5.63.06-1.85,1.06-2.46,3.39-2.9,5.48a12.72,12.72,0,0,0-.39,4.29,4.25,4.25,0,0,0,2.36,3.41c1.59.63,3.36-.1,5.06-.16a6.43,6.43,0,0,1,5.72,3.2l3.71,1.13c4.31.5,5.47-4.49,6.41-7.54,7.22.85,14.25,2.6,21.56,2.8A104.47,104.47,0,0,0,287.14,246c1-.18,2.24-.53,2.54-1.53A2,2,0,0,0,288.54,242.23Z"></path></g><path d="M223.19,340.46a6,6,0,0,1-.05-.88c0-.62,0-1.45,0-2.5,0-2.23,0-5.37,0-9.23,0-7.83,0-18.56,0-30.43,0-7.36.07-14.3.1-20.27l0,.11-7.68-14.58-2.13-4.12-.55-1.1c-.12-.25-.18-.38-.16-.39a4.13,4.13,0,0,1,.23.36l.6,1.06,2.24,4.06c1.93,3.55,4.63,8.55,7.85,14.49l0,0v.06c0,6,0,12.91,0,20.28-.07,11.86-.13,22.59-.17,30.42,0,3.86-.09,7-.12,9.23,0,1.05,0,1.89-.05,2.5A5,5,0,0,1,223.19,340.46Z" style="fill:#263238"></path><g style="opacity:0.30000000000000004"><path d="M211,348.92s-3,13.58,0,20.64,18.47,9.24,21.73,6.8,13.58-9.78,13.58-19.83-3.49-17.62-5.68-20.35S215.62,334,211,348.92Z"></path></g><path d="M214,346s-3,13.59,0,20.65,18.47,9.23,21.73,6.79,13.59-9.78,13.59-19.83-3.49-17.61-5.69-20.35S218.62,331.1,214,346Z" style="fill:#e0e0e0"></path><path d="M214,346a1.25,1.25,0,0,1,.09-.31c.08-.24.17-.54.3-.92s.37-.88.62-1.45a17.82,17.82,0,0,1,5.16-6.1,25.9,25.9,0,0,1,6.91-3.62,33.68,33.68,0,0,1,9.27-1.8,21.11,21.11,0,0,1,5.28.31,6.59,6.59,0,0,1,1.35.42,2.73,2.73,0,0,1,.64.4,3,3,0,0,1,.48.56,20.05,20.05,0,0,1,1.48,2.44,37.08,37.08,0,0,1,3.53,11.45,44,44,0,0,1,.46,6.33,16.29,16.29,0,0,1-1.43,6.41,29.73,29.73,0,0,1-7.93,10.1c-.79.68-1.58,1.34-2.39,2l-1.22.92a7.52,7.52,0,0,1-1.28.86,8.48,8.48,0,0,1-3,.64,20.3,20.3,0,0,1-2.92,0A27.54,27.54,0,0,1,219,371.76a13.29,13.29,0,0,1-3.92-3,8.31,8.31,0,0,1-1.25-2,17.51,17.51,0,0,1-.66-2.14,29.56,29.56,0,0,1-.6-7.77c.09-2.29.31-4.26.53-5.86s.45-2.82.62-3.66l.21-.94A3.22,3.22,0,0,1,214,346a1.14,1.14,0,0,1,0,.33c0,.24-.09.56-.15.95-.14.84-.33,2.07-.53,3.67s-.38,3.56-.43,5.84a29.33,29.33,0,0,0,.66,7.67,16.16,16.16,0,0,0,.66,2.08,7.94,7.94,0,0,0,1.19,1.9,13,13,0,0,0,3.82,2.89,27.09,27.09,0,0,0,10.28,2.77,21,21,0,0,0,2.86,0,8.33,8.33,0,0,0,2.78-.61,7,7,0,0,0,1.2-.81l1.21-.92q1.2-.93,2.37-1.95a29.21,29.21,0,0,0,7.78-9.92,15.85,15.85,0,0,0,1.39-6.2,43,43,0,0,0-.44-6.26,37.25,37.25,0,0,0-3.45-11.3,18.81,18.81,0,0,0-1.44-2.38,3.09,3.09,0,0,0-2.18-1.21,20.63,20.63,0,0,0-5.17-.33A34,34,0,0,0,227.2,334a25.82,25.82,0,0,0-6.85,3.5,18.75,18.75,0,0,0-4.08,4.13,20.64,20.64,0,0,0-1.12,1.81c-.26.56-.5,1-.66,1.42s-.26.66-.35.89A1.09,1.09,0,0,1,214,346Z" style="fill:#263238"></path><g style="opacity:0.30000000000000004"><path d="M275.11,336.31s-2.58,13.58,0,20.64,16,9.24,18.82,6.79,11.76-9.78,11.76-19.83-3-17.61-4.92-20.35S279.11,321.37,275.11,336.31Z"></path></g><rect x="217.32" y="280.76" width="2.54" height="13.14" style="fill:#fff"></rect><path d="M206.88,319.39v.12a1.4,1.4,0,0,0,.41.05A.57.57,0,0,0,206.88,319.39Z" style="fill:#DC1FFF"></path><polygon points="207.3 319.56 207.31 319.56 207.3 319.56 207.3 319.56" style="fill:#DC1FFF"></polygon><path d="M207.61,319.6c0-.07-.05-.06-.09-.09.12-.08.29-.27.47-.21s0,.26.35.24c1.6-.1,3.16-.12,4.75-.34,0,.06,0,.07,0,.1.48-.13.91-.16,1.34-.28a.59.59,0,0,1,.22.23,10.39,10.39,0,0,1,2.45-.37v-.31c.48-.05.17.33.61.22.13-.45.73,0,.86-.27,0,0,.22,0,.22.16,0-.23.21-.07.34-.14s0-.07-.08-.13l.3-.11c.13.06.17.2,0,.23.83,0,4.75-.06,5.62-.2-.12-.17-.38,0-.5-.31.22-.17.34,0,.43-.13.12.4.52.07.72.48l0-.24.13.14c1-.3.22-.14,1.13-.12.53-.06.76-.4,1.06-.29,0,0-.17-.14,0-.2,0,.2.35-.16.43,0,.13,0,.56,0,.41-.3.08.14.46.18.24.31.13,0,.26.05.35,0l-.17-.07c.44-.06.68.15,1-.11l-.16-.1c.26,0,.48-.06.59.22l-.27.09a2.57,2.57,0,0,0,1.06-.2h-.13c.45-.28,2.88-.55,3.3-.89l-.19-.22.36-.18s-.17.7-.21.63a50.14,50.14,0,0,1,5.62,0c.29.13,0,.35,0,.38.36-.07.16-.22.46-.2.09,0,0,.17-.07.2.14,0,.26.06.27,0-.16-.09-.08-.35-.15-.53l.39,0,0,.16c.09,0,.23-.45.62-.35.64.1,1.35.07,2,.13,0,.1-.15.16-.29.21.08,0,.22,0,.29.06-.14-.18.28-.1.16-.18.37-.29.79-.15,1.16-.15.09-1.43.17-2.78.22-4,.05-1,.1-2.08.15-3.21a.28.28,0,0,1-.15,0v0c-.52-.23-.82.25-1.29,0l.06-.06c-.17-.12-.51,0-.81-.11.09,0,.16.18,0,.2-.34-.14-.59,0-.84-.18l-.25.18c-1.23-.09-6.06.09-7.29.15l.05,0a73,73,0,0,0-7.62.52,2.64,2.64,0,0,0-1-.16c.17.07.12.21,0,.21-1,0-.06.13-1,.26a48.09,48.09,0,0,1-6.3.25c-.5.31-1.18.17-1.67.39l0-.07c-.54.14-3.68.22-4.31.4l.09,0c-.54.24-.5-.07-.95-.11.1.3-.36.53-.54.58v-.07c-.27.09-.86.42-1.3.53v-.17a4,4,0,0,1-1.33.3,6.28,6.28,0,0,0-2.42.21l-.44-.29c.26,2.21.52,4.4.79,6.55a1.21,1.21,0,0,0,.26.32v.17l.2,0c.26,0,.35-.17.36,0l-.35,0c.26,0,.1.13,0,.24A.75.75,0,0,1,207.61,319.6Z" style="fill:#DC1FFF"></path><polygon points="208.09 328.81 208.1 328.81 208.09 328.81 208.09 328.81" style="fill:#DC1FFF"></polygon><polygon points="208.1 328.82 208.1 328.81 208.1 328.81 208.1 328.82" style="fill:#DC1FFF"></polygon><path d="M244.61,322.53a1.13,1.13,0,0,1-.55-.19l-.28.15c-1.2-.24-6-.63-7.27-.71l.05,0a69.21,69.21,0,0,0-7.66-.36,2.76,2.76,0,0,0-1-.27c.17.09.1.22,0,.2-1-.07-.07.13-1,.15a49.75,49.75,0,0,1-6.31-.43c-.53.26-1.19.05-1.71.22l0-.07c-.55.09-3.69-.16-4.34-.05l.09,0c-.56.18-.49-.12-.94-.21.07.31-.41.49-.59.52v-.07a12.14,12.14,0,0,1-1.35.4v-.17a4.29,4.29,0,0,1-1.36.17,6.18,6.18,0,0,0-2.44,0l-.56-.45-.08.05s0,.31-.06.8c.28,2.22.56,4.35.83,6.36h0c.26.07.37-.13.36,0h-.35c.26,0,.08.13,0,.23a.74.74,0,0,1,.3.08c0-.07,0-.07-.08-.11.13-.06.31-.23.48-.16s0,.27.33.28c1.6.05,3.15.19,4.75.13,0,.07,0,.07,0,.1.49-.08.92-.07,1.36-.14a.52.52,0,0,1,.19.25,10.47,10.47,0,0,1,2.47-.12l0-.31c.47,0,.13.35.57.28.18-.43.73.05.89-.17,0,0,.21.05.2.18.07-.23.22-.05.36-.11s0-.07-.07-.14l.31-.07c.12.07.15.21,0,.23.82.1,4.72.45,5.6.4-.11-.18-.38-.08-.47-.36.24-.14.34.08.45-.08.06.41.5.13.65.55l.08-.23.11.15c1-.18.24-.11,1.14,0,.52,0,.8-.31,1.08-.17,0,0-.15-.15,0-.2,0,.2.37-.13.42.09.14,0,.57,0,.44-.25.06.14.44.23.21.33.12,0,.25.07.34,0l-.16-.09c.44,0,.66.23,1,0l-.15-.12c.26,0,.48,0,.56.28l-.27.07a2.53,2.53,0,0,0,1.07-.09h-.13c.48-.24,2.92-.23,3.38-.52l-.17-.23.38-.14s-.25.67-.28.6a48.15,48.15,0,0,1,5.57.67c.27.16,0,.35,0,.38.37,0,.19-.2.49-.14.07.05,0,.17-.1.19.14,0,.25.08.28,0-.16-.1,0-.36-.09-.54l.38.08,0,.16c.08,0,.29-.42.65-.27s1,.19,1.51.28C244.23,327.47,244.43,325,244.61,322.53Z" style="fill:#DC1FFF"></path><path d="M197.82,369.17s.1.12.25.38.39.67.66,1.13c.58,1.05,1.38,2.5,2.38,4.29l8.1,14.93,0,.06V390c-.31,3.2-.65,6.68-1,10.29-.94,9.31-1.79,17.74-2.41,23.91-.33,3-.6,5.47-.79,7.24-.1.81-.18,1.47-.25,2a3.13,3.13,0,0,1-.12.68,4.49,4.49,0,0,1,0-.69c0-.51.08-1.16.14-2,.16-1.77.37-4.24.63-7.26.59-6.17,1.38-14.61,2.27-23.92.35-3.61.7-7.09,1-10.29l0,.14c-3.19-6-6-11.25-7.93-15-1-1.82-1.71-3.29-2.26-4.36l-.58-1.17A2.35,2.35,0,0,1,197.82,369.17Z" style="fill:#263238"></path><path d="M263.07,358.1a1.45,1.45,0,0,1,.25.36l.66,1.09,2.39,4.13c2,3.6,4.84,8.56,8.09,14.3l0,.06v.06c0,2.74,0,5.7,0,8.76,0,8.66-.06,16.5-.08,22.25,0,2.8-.06,5.09-.08,6.74,0,.75,0,1.36,0,1.83a3.2,3.2,0,0,1-.05.64,2.69,2.69,0,0,1-.06-.64c0-.47,0-1.08,0-1.83,0-1.65-.05-3.94-.09-6.74,0-5.75,0-13.59-.07-22.25,0-3.06,0-6,0-8.76l0,.11-7.93-14.38c-.94-1.75-1.7-3.17-2.26-4.2l-.59-1.13A2.63,2.63,0,0,1,263.07,358.1Z" style="fill:#263238"></path><path d="M292.27,335.48a6.27,6.27,0,0,1-.1-.79c-.06-.58-.13-1.34-.22-2.29-.16-2-.39-4.91-.67-8.42-.53-7.17-1.25-17-2-27.8-.5-7.29-1-14.12-1.37-19.9v-.07c1.33-5.65,2.45-10.38,3.24-13.75.39-1.61.71-2.9.94-3.84.11-.41.19-.74.26-1a2,2,0,0,1,.12-.34,1.8,1.8,0,0,1-.05.36c-.05.27-.12.61-.2,1-.2,1-.47,2.24-.82,3.87-.74,3.38-1.79,8.12-3.05,13.79v-.07c.42,5.79.92,12.61,1.45,19.9.74,10.84,1.4,20.65,1.89,27.81.22,3.52.39,6.39.52,8.43,0,1,.08,1.72.11,2.3A4.08,4.08,0,0,1,292.27,335.48Z" style="fill:#263238"></path><path d="M277.72,333.43s-2.59,13.58,0,20.65,16,9.23,18.81,6.79S308.3,351.09,308.3,341s-3-17.61-4.93-20.35S281.71,318.49,277.72,333.43Z" style="fill:#e0e0e0"></path><path d="M277.72,333.43a1.18,1.18,0,0,1,.06-.3c.06-.22.14-.51.25-.88a15.39,15.39,0,0,1,1.41-3.2,17.38,17.38,0,0,1,3.49-4.3,21.35,21.35,0,0,1,6.28-3.79,25.73,25.73,0,0,1,8.71-1.77,17,17,0,0,1,2.45.12,7.82,7.82,0,0,1,2.49.67,2.43,2.43,0,0,1,1,1c.23.37.45.75.65,1.14a24.54,24.54,0,0,1,1.11,2.44,43.31,43.31,0,0,1,2.65,11,47,47,0,0,1,.29,6,17.45,17.45,0,0,1-1.22,6,29.33,29.33,0,0,1-6.77,10c-.7.69-1.4,1.36-2.12,2l-1.07.95a7.23,7.23,0,0,1-1.16.89,7,7,0,0,1-2.79.66,18,18,0,0,1-2.76-.08,20.58,20.58,0,0,1-9.58-3.46,9.89,9.89,0,0,1-3.12-3.46,14.27,14.27,0,0,1-1.19-4.13,40,40,0,0,1-.29-7.33c.1-2.16.29-4,.47-5.51s.39-2.67.53-3.46c.07-.36.13-.66.17-.89a1.31,1.31,0,0,1,.09-.3l0,.31c0,.23-.08.53-.13.9-.11.79-.26,2-.42,3.46s-.32,3.35-.38,5.5a39.66,39.66,0,0,0,.36,7.26,14,14,0,0,0,1.17,4,9.67,9.67,0,0,0,3,3.3,20.27,20.27,0,0,0,9.38,3.33,16,16,0,0,0,2.68.07A6.64,6.64,0,0,0,296,361a6.45,6.45,0,0,0,1.07-.83l1.07-.95c.71-.63,1.4-1.3,2.08-2a28.85,28.85,0,0,0,6.66-9.84c1.57-3.82,1.27-8,.9-11.79a43.3,43.3,0,0,0-2.58-10.84c-.34-.82-.68-1.63-1.08-2.39-.2-.39-.41-.76-.63-1.12a1.87,1.87,0,0,0-.8-.82,7.08,7.08,0,0,0-2.32-.64,14.91,14.91,0,0,0-2.4-.12,25.47,25.47,0,0,0-8.58,1.67,21.31,21.31,0,0,0-6.22,3.67,17.52,17.52,0,0,0-3.51,4.18A22,22,0,0,0,277.72,333.43Z" style="fill:#263238"></path><path d="M194.27,443.63l-4.39,8.7,4.41,10.35L199,473.4l14.82,10.12,16.28-.36s2.14-2.2,1.2-8.75-13.57-16-15.45-21.19-3.13-9.59-3.13-9.59Z" style="fill:#e0e0e0"></path><path d="M194.27,443.63a1.11,1.11,0,0,1,.31,0l.93,0,3.64-.05,13.53-.08h.13l0,.14c.82,2.76,1.8,5.78,3,9a14.34,14.34,0,0,0,2.72,4.43c1.15,1.4,2.43,2.77,3.74,4.19a63.43,63.43,0,0,1,7.73,9.39,11.76,11.76,0,0,1,1.31,3l.2.81.1.81c.07.54.1,1.09.13,1.64a15.62,15.62,0,0,1-.2,3.34,7.11,7.11,0,0,1-1.3,3.2l-.06.08h-.12l-1.45,0-14.83.32h-.08l-.07,0-14.8-10.14-.05,0,0-.06c-3.77-8.65-6.85-15.93-9-21.1l0-.06,0-.06,3.32-6.44.88-1.66.22-.41c0-.1.08-.14.09-.13a1.37,1.37,0,0,1-.07.16c0,.12-.12.26-.2.44l-.83,1.71L190,452.39v-.11c2.22,5.14,5.36,12.4,9.17,21l-.08-.09,14.83,10.09-.15,0,14.83-.34,1.45,0-.18.08a6.77,6.77,0,0,0,1.16-2.93,14.57,14.57,0,0,0,.19-3.23c0-.53-.05-1.07-.12-1.6l-.1-.79-.18-.76a12,12,0,0,0-1.26-2.84,64.4,64.4,0,0,0-7.64-9.32c-1.3-1.42-2.58-2.81-3.74-4.23a14.5,14.5,0,0,1-2.77-4.56c-1.15-3.23-2.11-6.26-2.91-9l.18.13-13.45-.09-3.67-.05-1,0Z" style="fill:#263238"></path><g style="opacity:0.30000000000000004"><path d="M193,445.23a11.45,11.45,0,0,0,5.46,8.86A10.07,10.07,0,0,0,208.7,454a9,9,0,0,0,3.87-9.38"></path></g><circle cx="203.41" cy="441" r="11.34" style="fill:#263238"></circle><path d="M220,459.61c0,.05-.63,0-1.74.07a22.93,22.93,0,0,0-4.67.73,21.65,21.65,0,0,0-6.37,2.83,24.13,24.13,0,0,0-6,6.07l-.25.37-.25.36-.2-.39c-2.69-5.42-5.08-10.31-6.79-13.86l-2-4.21a12,12,0,0,1-.67-1.57,10.92,10.92,0,0,1,.85,1.48l2.14,4.14c1.8,3.51,4.25,8.37,6.94,13.79l-.45,0,.25-.37a24.13,24.13,0,0,1,6.13-6.17,21.35,21.35,0,0,1,6.55-2.79,20.48,20.48,0,0,1,4.75-.57c.57,0,1,0,1.3.06A1.46,1.46,0,0,1,220,459.61Z" style="fill:#263238"></path><path d="M230,474.62c0,.1-1.12-.47-3-.76a11.43,11.43,0,0,0-12.2,6.48,29.77,29.77,0,0,0-1,2.92,2.24,2.24,0,0,1,.06-.84,9.57,9.57,0,0,1,.66-2.23,11.23,11.23,0,0,1,12.59-6.69,9.15,9.15,0,0,1,2.21.7A2.7,2.7,0,0,1,230,474.62Z" style="fill:#263238"></path><path d="M307.07,432.16c.05.07-.84.75-2.12,2a28.1,28.1,0,0,0-7.21,11.78c-.53,1.7-.73,2.8-.81,2.79a2.19,2.19,0,0,1,0-.79,17.8,17.8,0,0,1,.42-2.1,24.55,24.55,0,0,1,2.77-6.52,24.89,24.89,0,0,1,4.54-5.43,15.32,15.32,0,0,1,1.69-1.32C306.81,432.27,307.05,432.13,307.07,432.16Z" style="fill:#263238"></path><path d="M293.13,423.87a8.6,8.6,0,0,1-.77,1.27c-.58.87-1.33,2-2.24,3.35-1.91,2.82-4.58,6.7-7.56,11a18.75,18.75,0,0,1-2.36,3,3.61,3.61,0,0,1-1.72.84,7.65,7.65,0,0,1-1.77.09l-6-.17-4-.17a7.78,7.78,0,0,1-1.48-.13,7.55,7.55,0,0,1,1.48-.07h4l6,.06a4.19,4.19,0,0,0,3.15-.84,18.54,18.54,0,0,0,2.28-3c3-4.26,5.69-8.1,7.68-10.87L292.2,425A8,8,0,0,1,293.13,423.87Z" style="fill:#263238"></path><rect x="276.57" y="381.45" width="1.32" height="7.43" style="fill:#fff"></rect><path d="M220.26,234.07s32.19,8.7,47.77,9.64,20.71,0,20.71,0a8.56,8.56,0,0,0-1.05-7.89c-2.78-3.7-64.61-9.63-64.61-9.63Z" style="fill:#455a64"></path><rect x="206.42" y="228.26" width="25.89" height="11.36" rx="2.5" transform="translate(-61.22 389.25) rotate(-75.81)" style="fill:#455a64"></rect><path d="M219.28,247.27a5.75,5.75,0,0,0,.71,0,2.44,2.44,0,0,0,1.71-.87,2.64,2.64,0,0,0,.57-1.29c.13-.53.26-1.1.41-1.71.3-1.24.64-2.63,1-4.17l2.69-10.83c.25-1,.51-2.06.78-3.13a2.26,2.26,0,0,0-1-2.63,7,7,0,0,0-1.58-.48l-1.7-.43-3.48-.88a2.24,2.24,0,0,0-2.62,1.33c-.32,1.07-.59,2.25-.87,3.34q-.85,3.33-1.63,6.39c-1.05,4-2,7.71-2.79,10.8a2.3,2.3,0,0,0,.41,2,2.57,2.57,0,0,0,1.62.93l3.12.84,2,.55a4.68,4.68,0,0,1,.68.22,3.12,3.12,0,0,1-.7-.12l-2-.45-3.15-.76a2.9,2.9,0,0,1-1.81-1,2.68,2.68,0,0,1-.5-2.29c.77-3.1,1.68-6.77,2.68-10.83.51-2,1-4.18,1.6-6.39.3-1.12.53-2.21.89-3.41a2.77,2.77,0,0,1,3.23-1.65l3.48.88,1.7.44.84.21a3.18,3.18,0,0,1,.87.33,2.78,2.78,0,0,1,1.23,3.19c-.27,1.07-.54,2.11-.8,3.13-1,4.05-2,7.71-2.79,10.8-.4,1.53-.76,2.92-1.09,4.15l-.45,1.7a2.84,2.84,0,0,1-.65,1.36,2.53,2.53,0,0,1-1.87.85A1.74,1.74,0,0,1,219.28,247.27Z" style="fill:#263238"></path><path d="M229.92,234.08h7a7.48,7.48,0,0,1,7.48,7.48v.28a7.48,7.48,0,0,1-7.48,7.48h-7a7.48,7.48,0,0,1-7.48-7.48v-.27A7.49,7.49,0,0,1,229.92,234.08Z" transform="translate(-44.46 430.6) rotate(-80.21)" style="fill:#455a64"></path><path d="M231.68,252.54a11.53,11.53,0,0,0,2.4-.08,7.4,7.4,0,0,0,5.15-3.56,7.52,7.52,0,0,0,.79-2c.17-.71.26-1.52.41-2.31.27-1.62.56-3.35.86-5.16a7.42,7.42,0,0,0-11.82-7,7.33,7.33,0,0,0-2.77,4.71c-.32,1.81-.62,3.53-.91,5.14-.14.81-.3,1.59-.37,2.32a8.19,8.19,0,0,0,.16,2.12,7.5,7.5,0,0,0,1.66,3.23,7.62,7.62,0,0,0,2.19,1.71,13.89,13.89,0,0,0,2.25.8,1.83,1.83,0,0,1-.62-.07,7,7,0,0,1-1.72-.55,7.43,7.43,0,0,1-2.31-1.69,7.7,7.7,0,0,1-1.81-3.35,8.43,8.43,0,0,1-.2-2.22c.06-.79.21-1.56.34-2.37q.42-2.43.87-5.16a7.91,7.91,0,0,1,14.27-3.27,7.72,7.72,0,0,1,1.27,5.68c-.32,1.81-.63,3.53-.91,5.15-.16.81-.26,1.57-.45,2.34a7.47,7.47,0,0,1-.87,2.06,7.6,7.6,0,0,1-2.72,2.65,7,7,0,0,1-2.71.92,7.23,7.23,0,0,1-1.81,0A2.91,2.91,0,0,1,231.68,252.54Z" style="fill:#263238"></path><path d="M238.36,231.43c.14,0-.62,4.75-1.69,10.55s-2.07,10.49-2.21,10.46.62-4.75,1.7-10.55S238.22,231.4,238.36,231.43Z" style="fill:#263238"></path><path d="M224.63,233.62a27.39,27.39,0,0,1-5.26-.9,27.41,27.41,0,0,1-5.16-1.42,28,28,0,0,1,5.27.91A27.34,27.34,0,0,1,224.63,233.62Z" style="fill:#263238"></path><path d="M279.29,233.22a17.54,17.54,0,0,1,0,5.51,18.19,18.19,0,0,1-1.15,5.39c-.15,0,.33-2.44.64-5.44S279.14,233.22,279.29,233.22Z" style="fill:#263238"></path><path d="M289.27,243.3a19.09,19.09,0,0,1-.25-2.45c-.08-.75-.17-1.64-.32-2.63s-.22-2.17-1.2-2.64a6,6,0,0,0-1.54-.46l-1.54-.34-2.6-.6a11.07,11.07,0,0,1-2.37-.68,11.92,11.92,0,0,1,2.44.32l2.63.49,1.54.31a6.08,6.08,0,0,1,1.69.5,2.26,2.26,0,0,1,1.14,1.44,10.06,10.06,0,0,1,.28,1.59,26.6,26.6,0,0,1,.21,2.68A8.58,8.58,0,0,1,289.27,243.3Z" style="fill:#263238"></path><path d="M289.13,250.28a1.79,1.79,0,0,1-.11.5c-.12.37-.25.84-.42,1.4s-.48,1.33-.79,2.18-.71,1.79-1.21,2.82a79,79,0,0,1-9.49,15c-2.12,2.74-4.23,5.29-6.14,7.6a32.75,32.75,0,0,1-6,5.33,11.7,11.7,0,0,1-4.95,2.12,7.87,7.87,0,0,1-1.47.1,2.37,2.37,0,0,1-.51-.06c0-.05.71,0,1.95-.24a12.23,12.23,0,0,0,4.77-2.22,33.61,33.61,0,0,0,5.81-5.34c1.89-2.32,4-4.87,6.1-7.61A86.16,86.16,0,0,0,286.27,257c.51-1,.9-2,1.27-2.77l.87-2.14.51-1.37C289,250.43,289.11,250.27,289.13,250.28Z" style="fill:#263238"></path><path d="M284.25,269a4.93,4.93,0,0,1-.38,1,27,27,0,0,1-1.31,2.68,39.43,39.43,0,0,1-13.32,14.24,29.43,29.43,0,0,1-2.58,1.48,5,5,0,0,1-1,.44c0-.08,1.32-.82,3.38-2.23a44.65,44.65,0,0,0,13.2-14.11C283.52,270.37,284.16,269,284.25,269Z" style="fill:#263238"></path><path d="M268,243.71a1.53,1.53,0,0,1,0,.49c0,.37-.08.83-.13,1.38-.12,1.2-.32,2.93-.58,5.07-.54,4.28-1.31,10.19-2.41,16.69-.28,1.62-.56,3.21-.88,4.73a19.18,19.18,0,0,1-5.49,10.65,33.79,33.79,0,0,1-3.78,3.46c-.47.37-.86.65-1.12.82a1.74,1.74,0,0,1-.42.25s.11-.13.36-.33l1-.9a39,39,0,0,0,3.64-3.55,22.85,22.85,0,0,0,4.08-6.25,22.29,22.29,0,0,0,1.18-4.26c.31-1.51.59-3.09.87-4.71,1.09-6.48,1.93-12.38,2.55-16.64.31-2.08.56-3.78.75-5.06.09-.54.16-1,.22-1.37A2.71,2.71,0,0,1,268,243.71Z" style="fill:#263238"></path><circle cx="186.58" cy="220.27" r="8.1" style="fill:#263238"></circle><path d="M178.58,187.93c-.07.46-.79,6.14-1.56,12.23a26.43,26.43,0,0,0,10.39,24.47l4.25,3.18s11.8-18.91,14.86-29.59l-7.43-10.29Z" style="fill:#263238"></path><path d="M192.49,215.48a19,19,0,0,0-1.61-1.54,7.65,7.65,0,0,0-4.95-1.52,7.55,7.55,0,0,0-4.73,2.11,16.66,16.66,0,0,0-1.39,1.74,3.9,3.9,0,0,1,1.13-2,7.33,7.33,0,0,1,5-2.38,7.45,7.45,0,0,1,5.21,1.76A3.92,3.92,0,0,1,192.49,215.48Z" style="fill:#455a64"></path><path d="M217,141.3a17.46,17.46,0,0,0-11.6,4.12L217,164S225.25,146.84,217,141.3Z" style="fill:#263238"></path><path d="M204.82,138.21S167,146.5,178,192.51l30,8.61,11-25.89S216.7,146.41,204.82,138.21Z" style="fill:#e0e0e0"></path><path d="M204.82,138.21s.2.13.6.42a14.17,14.17,0,0,1,1.67,1.41,26.55,26.55,0,0,1,4.75,6.74c3.28,6.34,6.09,16.28,7.3,28.43v0l0,.06c-3.3,7.8-7,16.55-10.93,25.9l-.09.2-.22-.06-14.63-4.19-15.38-4.42-.14,0,0-.14c-2.22-9.44-2.69-18.8-.69-26.81a37.84,37.84,0,0,1,4.42-10.71,36.82,36.82,0,0,1,6.39-7.68,40.76,40.76,0,0,1,12.07-7.59,36,36,0,0,1,3.63-1.27c.42-.12.74-.2,1-.25a1.72,1.72,0,0,1,.34,0l-.33.1-.94.29c-.84.27-2.06.69-3.59,1.34a41.72,41.72,0,0,0-11.91,7.67,36.5,36.5,0,0,0-6.28,7.65,37.24,37.24,0,0,0-4.32,10.6c-1.95,7.94-1.47,17.21.75,26.59l-.18-.19,15.38,4.41,14.63,4.2-.3.15c4-9.34,7.67-18.08,11-25.88l0,.11c-1.17-12.1-3.9-22-7.09-28.35a26.78,26.78,0,0,0-4.62-6.76,16.2,16.2,0,0,0-1.6-1.45Z" style="fill:#263238"></path><path d="M185.54,156.15A2.09,2.09,0,0,1,188,154.9c5.3,1.27,20.47,5.1,20.21,7.12s-2.83,14.46-5.86,14.51a13.68,13.68,0,0,1-3.72-.34,2.1,2.1,0,0,0-2.61,1.26c-.6,1.66-1.59,2.51-2.49,1.58-1.47-1.54.16-4.16.16-4.16s-1.53,3.78-3.34,3c-1.6-.67.2-4.25.2-4.25s-2,4.07-3.42,3.17c-1.1-.72-.12-2.09-.11-3.55a2.07,2.07,0,0,0-1.47-2,8.11,8.11,0,0,1-3.63-2C180.89,168.05,184.08,159.75,185.54,156.15Z" style="fill:#DC1FFF"></path><path d="M191.51,166a1.94,1.94,0,1,1-1.67-2.17A1.94,1.94,0,0,1,191.51,166Z" style="fill:#e0e0e0"></path><path d="M201.17,169.21A1.94,1.94,0,1,1,199.5,167,1.94,1.94,0,0,1,201.17,169.21Z" style="fill:#e0e0e0"></path><path d="M192.39,170.59c-.41-.14-.53-.84-.28-1.56s.79-1.19,1.19-1.05.54.85.28,1.57S192.79,170.73,192.39,170.59Z" style="fill:#e0e0e0"></path><path d="M194.21,171.3c-.4-.15-.53-.85-.27-1.56s.79-1.19,1.19-1.05.53.84.28,1.56S194.62,171.44,194.21,171.3Z" style="fill:#e0e0e0"></path><path d="M217.35,174.51a7.67,7.67,0,0,1-.22-1.44c-.1-.93-.28-2.26-.55-3.91A64.71,64.71,0,0,0,207.39,145c-.89-1.41-1.64-2.53-2.19-3.29a7.48,7.48,0,0,1-.79-1.22,7.7,7.7,0,0,1,1,1.1c.59.72,1.39,1.82,2.33,3.21a58.67,58.67,0,0,1,9.24,24.28c.23,1.66.36,3,.39,3.94A7.12,7.12,0,0,1,217.35,174.51Z" style="fill:#263238"></path><path d="M216.91,175c.13.06-2.08,5.72-4.95,12.65s-5.29,12.5-5.42,12.44,2.08-5.71,4.94-12.64S216.78,175,216.91,175Z" style="fill:#263238"></path><path d="M201.35,141.72a11.78,11.78,0,0,1-1.49.65,35.06,35.06,0,0,0-4,2,32.39,32.39,0,0,0-16,23.09,35.66,35.66,0,0,0-.45,4.38,13.26,13.26,0,0,1-.08,1.63,1.23,1.23,0,0,1-.06-.42c0-.28-.06-.68-.06-1.21a28.43,28.43,0,0,1,.28-4.44A31.43,31.43,0,0,1,195.73,144a28.7,28.7,0,0,1,4.06-1.83c.49-.19.88-.29,1.15-.37S201.35,141.7,201.35,141.72Z" style="fill:#fff"></path><g style="opacity:0.30000000000000004"><path d="M248.35,207.44a38.77,38.77,0,0,0,13.42-18.33,4,4,0,0,0,.26-2.5,2.85,2.85,0,0,0-2.67-1.74,8.36,8.36,0,0,0-3.28.79c.73-1,.12-2.46-.73-3.38s-2-1.65-2.43-2.81c-1.37-3.31,3.35-7.16,1.51-10.23-3.2,1.19-5.61,3.81-8.38,5.82s-6.52,3.43-9.55,1.84c-2.76-1.44-3.84-4.77-4.67-7.78l-2.23,20.43Z"></path></g><path d="M226.06,196.83s-1.48-11.77-.66-14.53,1.44-3.25,1.69-4.72c0,0,.43-4,.49-6.13s-1.5-4.29-.65-5.2,4.9-1.13,5.94,5c0,0,.06,1.7,0,4.26-.11,3.21.69,5,2.37,5.28s4.63-1.37,6.82-4,8.32-10.11,9.62-11.39,2.92-2.33,4.56-1.08-.91,3.89-3,7.29-4.31,6.53-4.31,6.53a3.53,3.53,0,0,1,2.15,2.57,6,6,0,0,1-.3,2.82s3.17-2,4.51.13S254,189,254,189l4-2.81s4.85-4.73,6.53-3.33-1.15,3.42-2.55,5.09-6.79,5.27-7.66,6.52-2.9,4.3-5.34,5.92-7.56,5.85-10.13,5.48-4.84-3-4.84-3Z" style="fill:#263238"></path><path d="M232.46,173.61a8.27,8.27,0,0,1-2.49-.11,8.08,8.08,0,0,1-2.46-.38,8.19,8.19,0,0,1,5,.49Z" style="fill:#455a64"></path><path d="M233,178.22a20.31,20.31,0,0,1-3.16.2,21,21,0,0,1-3.15.2,9.85,9.85,0,0,1,6.31-.4Z" style="fill:#455a64"></path><path d="M248.63,178.25c-.12.11-1.11-.84-2.57-1.66s-2.77-1.22-2.73-1.37a5.23,5.23,0,0,1,3,.92A5.29,5.29,0,0,1,248.63,178.25Z" style="fill:#455a64"></path><path d="M253,171.68c-.12.08-.84-.8-1.93-1.62s-2.12-1.3-2.07-1.45a4,4,0,0,1,2.39,1C252.59,170.53,253.15,171.61,253,171.68Z" style="fill:#455a64"></path><path d="M254,195.12a22.42,22.42,0,0,1-2.17-2.45c-1.31-1.54-3.1-3.68-5.27-5.85a36.84,36.84,0,0,0-6.08-4.94c-1.69-1.08-2.84-1.6-2.8-1.68a3.19,3.19,0,0,1,.84.28,20.36,20.36,0,0,1,2.15,1.08,31.43,31.43,0,0,1,6.26,4.89,59.54,59.54,0,0,1,5.18,6A18.89,18.89,0,0,1,254,195.12Z" style="fill:#455a64"></path><path d="M248.86,178c.08.14-1.5,1-3.05,2.61s-2.47,3.14-2.61,3.06a10.07,10.07,0,0,1,5.66-5.67Z" style="fill:#455a64"></path><path d="M251.09,183c.11.1-.73,1.06-1.86,2.14a8,8,0,0,1-2.22,1.76c-.1-.11.74-1.07,1.86-2.14A8,8,0,0,1,251.09,183Z" style="fill:#455a64"></path><path d="M254.17,188.84c.11.1-.46.84-1.34,1.57s-1.71,1.14-1.79,1,.61-.72,1.46-1.43S254.07,188.74,254.17,188.84Z" style="fill:#455a64"></path><path d="M258.15,191c-.1.09-.8-.48-1.55-1.29s-1.28-1.53-1.18-1.63.8.47,1.56,1.28S258.26,190.91,258.15,191Z" style="fill:#455a64"></path><path d="M262.32,187.34c-.13.07-.59-.57-1.25-1.27s-1.25-1.22-1.17-1.35.85.23,1.56,1S262.45,187.28,262.32,187.34Z" style="fill:#455a64"></path><path d="M234,180.2a27.23,27.23,0,0,1-4.28,3.29,29.11,29.11,0,0,1-4.57,2.87,28,28,0,0,1,4.28-3.29A29.11,29.11,0,0,1,234,180.2Z" style="fill:#455a64"></path><path d="M239.68,195.08a111.58,111.58,0,0,0-16.26-.67L187,218.73l-2.33,17.48,11.9,2c7.14-2.5,17.57-8.73,25.91-13.52,8-4.59,27-18.64,33.12-22.24Z" style="fill:#e0e0e0"></path><path d="M239.68,195.08l.28.11.81.35,3.12,1.41,11.8,5.39.26.12-.24.16c-6.59,4.11-14.77,10.19-24.53,16.81-2.44,1.65-5,3.35-7.67,5l-8.37,4.84c-2.86,1.64-5.81,3.29-8.86,4.88a78,78,0,0,1-9.59,4.35l-.06,0h-.07l-1.49-.26-10.41-1.77-.25,0,0-.25c.82-6.06,1.6-11.91,2.35-17.48l0-.11.09-.06,36.44-24.24,0,0h0a110.76,110.76,0,0,1,12,.33c1.39.12,2.45.24,3.17.33l.81.11.27.05a.84.84,0,0,1-.28,0l-.81-.07c-.72-.06-1.79-.16-3.17-.25-2.78-.17-6.85-.37-12-.19l.08,0-36.34,24.4.11-.17c-.74,5.57-1.52,11.42-2.32,17.48l-.22-.29,10.42,1.77,1.49.25h-.13a79.64,79.64,0,0,0,9.52-4.31c3-1.59,6-3.24,8.85-4.87l8.37-4.82c2.68-1.61,5.22-3.3,7.66-4.94,9.78-6.59,18-12.62,24.63-16.7v.27l-11.72-5.52-3.1-1.48-.79-.39Z" style="fill:#263238"></path><path d="M227.54,221.88a11.22,11.22,0,0,1-1.65-.09l-4.49-.43c-3.79-.38-9.05-1-14.89-1.61l.16,0-.81.51c-5.16,3.26-9.85,6.19-13.25,8.29L188.56,231a11.62,11.62,0,0,1-1.53.85,12.89,12.89,0,0,1,1.42-1l4-2.6c3.36-2.17,8-5.15,13.17-8.41l.82-.51.07-.05h.1c5.84.67,11.09,1.3,14.87,1.78l4.47.59A10.17,10.17,0,0,1,227.54,221.88Z" style="fill:#263238"></path><path d="M240.27,195.36a4.54,4.54,0,0,1-.83.29l-2.36.66c-2,.54-4.88,1.29-8.24,2.14l.09,0-5.13,3.7L215.48,208l-.1.08-.11-.06L210,205.65a13.29,13.29,0,0,1-1.94-1,14.45,14.45,0,0,1,2,.77l5.31,2.24-.21,0,8.27-6,5.14-3.68,0,0h0c3.36-.82,6.24-1.5,8.28-2l2.39-.52A3.48,3.48,0,0,1,240.27,195.36Z" style="fill:#263238"></path><ellipse cx="213.36" cy="199.06" rx="0.26" ry="0.05" style="fill:#455a64"></ellipse><path d="M269.88,144.18a8.26,8.26,0,0,1-2.12.75,32.79,32.79,0,0,1-5.34,1A33.69,33.69,0,0,1,257,146a8.07,8.07,0,0,1-2.22-.33c0-.16,3.42.15,7.6-.27S269.84,144,269.88,144.18Z" style="fill:#263238"></path></g></svg>